<?xml version="1.0" encoding="utf-8"?>
<!-- Generator: Adobe Illustrator 26.4.1, SVG Export Plug-In . SVG Version: 6.00 Build 0)  -->
<svg version="1.1" id="Camada_1" xmlns="http://www.w3.org/2000/svg" xmlns:xlink="http://www.w3.org/1999/xlink" x="0px" y="0px"
	 viewBox="0 0 673.8 114.3" style="enable-background:new 0 0 673.8 114.3;" xml:space="preserve">
<style type="text/css">
	.st0{fill:none;}
	.st1{fill:#1D1D1B;}
	.st2{fill:#E4221A;}
	.st3{fill:#FFFFFF;}
	.st4{fill:#989898;}
	.st5{fill:#F0F0F0;}
	.st6{fill:#F1F1F1;}
	.st7{fill:#F3F3F3;}
	.st8{fill:#F4F4F4;}
	.st9{fill:#E5E5E5;}
	.st10{fill:#E20613;}
</style>
<path class="st0" d="M244.2,10c-7,0-12.6,2.1-16.9,6.2c-4.3,4.1-6.4,9.7-6.4,16.6v49.9c0,6.9,2.1,12.4,6.4,16.6
	c4.3,4.1,9.9,6.2,16.9,6.2c6.9,0,12.3-2,16.3-6c4-4,5.9-9.5,5.9-16.4V68.4h-14.8v15c0,5.6-2.4,8.4-7.3,8.4c-5.4,0-8.1-2.9-8.1-8.8
	V32.3c0-5.9,2.7-8.8,8.1-8.8c4.9,0,7.3,2.8,7.3,8.4v13.9h14.8V32.3c0-6.9-2-12.4-5.9-16.4C256.6,12,251.1,10,244.2,10z"/>
<rect x="195.4" y="11.5" class="st0" width="15.2" height="92.3"/>
<path class="st0" d="M387.6,62.7h-5.4v28.5h5.4c4.1,0,6.8-1,8.1-3c1.3-2,2-5.6,2-10.9c0-5.1-0.7-8.8-2-11.1
	C394.4,63.9,391.7,62.7,387.6,62.7z"/>
<path class="st0" d="M394.9,47.6c1.2-2,1.8-5.5,1.8-10.2c0-4.8-0.6-8.1-1.8-10c-1.2-1.9-3.4-2.9-6.6-2.9h-6v26.2h6
	C391.5,50.7,393.7,49.7,394.9,47.6z"/>
<path class="st0" d="M159,69.2h9.1v12.7c0,6.5-2.7,9.7-8.2,9.7c-5.2,0-7.8-2.9-7.8-8.8V32.3c0-5.9,2.6-8.8,7.7-8.8
	c4.9,0,7.3,2.8,7.3,8.4v11.8h14.8V32.3c0-6.8-2-12.2-5.9-16.3c-4-4-9.4-6.1-16.2-6.1c-6.9,0-12.5,2.1-16.7,6.2
	c-4.2,4.1-6.3,9.7-6.3,16.6v49.3c0,6.9,1.8,12.5,5.4,16.8c3.6,4.3,8.7,6.5,15.5,6.5c6.6,0,11.9-2.7,15.7-8.1l2.4,6.5h6.9V57.3H159
	V69.2z"/>
<polygon class="st0" points="41.3,69.3 30.4,11.5 9.9,11.5 9.9,103.8 23.4,103.8 23.4,34.3 36.2,103.8 45.5,103.8 58.6,34.1 
	58.6,103.8 72.5,103.8 72.5,11.5 52.3,11.5 "/>
<polygon class="st0" points="96.9,11.5 80.8,103.8 95.5,103.8 98.1,84.6 113.6,84.6 116.3,103.8 131,103.8 114.9,11.5 "/>
<path class="st0" d="M620.5,11.7v13h1.5h27.2v0.1c-4.6,12.3-8.8,25-12.4,37.9c-3.7,13.4-6.7,27.1-9,41.1H644
	c2.1-15.3,4.9-29.5,8.2-42.5c2.3-9,6.6-22.7,12.8-40.9v-8.8h-42H620.5z"/>
<path class="st0" d="M573,11.7h-2.4v13h1.5h27.2v0.1c-4.6,12.3-8.8,25-12.4,37.9c-3.7,13.4-6.7,27.1-9,41.1H594
	c2.1-15.3,4.9-29.5,8.2-42.5c0.1-0.5,0.3-1.1,0.4-1.6c0.1-0.2,0.1-0.4,0.2-0.6c0.1-0.4,0.2-0.8,0.3-1.1c0.1-0.2,0.1-0.5,0.2-0.7
	c0.1-0.4,0.2-0.7,0.3-1.1c0.1-0.3,0.2-0.5,0.2-0.8c0.1-0.4,0.2-0.7,0.3-1.1c0.1-0.3,0.2-0.6,0.3-0.9c0.1-0.4,0.2-0.8,0.3-1.2
	c0.1-0.3,0.2-0.6,0.3-0.9c0.1-0.4,0.2-0.8,0.4-1.2c0.1-0.3,0.2-0.6,0.3-0.9c0.1-0.5,0.3-0.9,0.4-1.4c0.1-0.3,0.2-0.6,0.3-0.9
	c0.2-0.7,0.5-1.5,0.7-2.3c0.1-0.4,0.2-0.8,0.4-1.2c0.1-0.4,0.3-0.8,0.4-1.2c0.1-0.4,0.3-0.9,0.4-1.4c0.1-0.4,0.2-0.8,0.4-1.2
	c0.2-0.5,0.3-0.9,0.5-1.4c0.1-0.4,0.3-0.8,0.4-1.2c0.2-0.5,0.3-1,0.5-1.5c0.1-0.4,0.3-0.8,0.4-1.2c0.2-0.5,0.3-1,0.5-1.6
	c0.1-0.4,0.3-0.8,0.4-1.2c0.2-0.6,0.4-1.1,0.6-1.7c0.1-0.4,0.3-0.8,0.4-1.1c0.2-0.6,0.4-1.2,0.6-1.8c0.7-2.1,1.4-4.2,2.1-6.4v-8.8
	h-2.4H573z"/>
<path class="st0" d="M522.1,11.7h-1.5v13h1.5h27.1v0.1c-4.6,12.3-8.8,25-12.4,37.9c-3.7,13.4-6.7,27.1-9,41.1H544
	c2.1-15.3,4.9-29.5,8.2-42.5c0.1-0.5,0.3-1.1,0.4-1.6c0.1-0.2,0.1-0.4,0.2-0.6c0.1-0.4,0.2-0.8,0.3-1.1c0.1-0.2,0.1-0.5,0.2-0.7
	c0.1-0.4,0.2-0.7,0.3-1.1c0.1-0.3,0.2-0.5,0.2-0.8c0.1-0.4,0.2-0.7,0.3-1.1c0.1-0.3,0.2-0.6,0.3-0.9c0.1-0.4,0.2-0.8,0.3-1.2
	c0.1-0.3,0.2-0.6,0.3-0.9c0.1-0.4,0.2-0.8,0.4-1.2c0.1-0.3,0.2-0.6,0.3-0.9c0.1-0.5,0.3-0.9,0.4-1.4c0.1-0.3,0.2-0.6,0.3-0.9
	c0.2-0.7,0.5-1.5,0.7-2.3c0.1-0.4,0.2-0.8,0.4-1.2c0.1-0.4,0.3-0.8,0.4-1.2c0.1-0.4,0.3-0.9,0.4-1.4c0.1-0.4,0.2-0.8,0.4-1.2
	c0.2-0.5,0.3-0.9,0.5-1.4c0.1-0.4,0.3-0.8,0.4-1.2c0.2-0.5,0.3-1,0.5-1.5c0.1-0.4,0.3-0.8,0.4-1.2c0.2-0.5,0.3-1,0.5-1.6
	c0.1-0.4,0.3-0.8,0.4-1.2c0.2-0.6,0.4-1.1,0.6-1.7c0.1-0.4,0.3-0.8,0.4-1.1c0.2-0.6,0.4-1.2,0.6-1.8c0.7-2.1,1.4-4.2,2.1-6.4v-8.8
	h-2.4H522.1z"/>
<path class="st1" d="M401.8,56.3v-0.3c3.8-1.6,6.4-3.9,7.8-6.8c1.4-2.9,2-7,2-12.3c0-8.7-1.6-15.1-4.7-19.2
	c-3.2-4.1-8.6-6.1-16.2-6.1h-23.8V104h22.8c8.8,0,14.8-2.1,18.1-6.3c3.3-4.2,4.9-10.9,4.9-20.1c0-6-0.7-10.7-2.2-13.9
	C409,60.4,406.1,57.9,401.8,56.3z M382.3,24.5h6c3.2,0,5.5,1,6.6,2.9c1.2,1.9,1.8,5.3,1.8,10c0,4.8-0.6,8.2-1.8,10.2
	c-1.2,2-3.4,3.1-6.6,3.1h-6V24.5z M395.8,88.2c-1.3,2-4,3-8.1,3h-5.4V62.7h5.4c4.1,0,6.8,1.2,8.1,3.5c1.3,2.3,2,6,2,11.1
	C397.7,82.6,397.1,86.2,395.8,88.2z"/>
<polygon class="st1" points="421.6,11.7 421.6,104 462.2,104 462.2,90.3 436.9,90.3 436.9,62.7 454.8,62.7 454.8,49.8 436.9,49.8 
	436.9,25.1 458.6,25.1 461.1,25.1 461.1,11.7 458.6,11.7 "/>
<polygon class="st1" points="469.1,11.7 466.6,11.7 466.6,25.4 469.1,25.4 482.9,25.4 482.9,104 498.1,104 498.1,25.4 512.6,25.4 
	514.1,25.4 514.1,11.7 512.5,11.7 "/>
<path class="st0" d="M559.1,38.2c-0.2,0.5-0.3,1-0.5,1.4C558.8,39.1,559,38.7,559.1,38.2z"/>
<path class="st0" d="M557.5,43.4c-0.1,0.4-0.3,0.8-0.4,1.2C557.2,44.2,557.3,43.8,557.5,43.4z"/>
<path class="st0" d="M558.3,40.8c-0.1,0.5-0.3,0.9-0.4,1.4C558,41.7,558.1,41.2,558.3,40.8z"/>
<path class="st0" d="M560.9,32.7c-0.2,0.5-0.3,1-0.5,1.6C560.6,33.8,560.7,33.2,560.9,32.7z"/>
<path class="st0" d="M561.9,29.8c-0.2,0.6-0.4,1.1-0.6,1.7C561.5,31,561.7,30.4,561.9,29.8z"/>
<path class="st0" d="M555,51.3c-0.1,0.3-0.2,0.6-0.3,0.9C554.9,51.9,555,51.6,555,51.3z"/>
<path class="st0" d="M556.4,46.8c-0.1,0.3-0.2,0.6-0.3,0.9C556.2,47.4,556.3,47.1,556.4,46.8z"/>
<path class="st0" d="M554.4,53.4c-0.1,0.3-0.2,0.6-0.3,0.9C554.3,53.9,554.3,53.6,554.4,53.4z"/>
<path class="st0" d="M562.8,26.9c-0.2,0.6-0.4,1.2-0.6,1.8C562.4,28.1,562.6,27.5,562.8,26.9z"/>
<path class="st0" d="M555.7,49.1c-0.1,0.3-0.2,0.6-0.3,0.9C555.5,49.7,555.6,49.4,555.7,49.1z"/>
<polygon class="st0" points="421.6,104 462.2,104 462.2,90.3 436.9,90.3 436.9,62.7 454.8,62.7 454.8,49.8 436.9,49.8 436.9,25.1 
	458.6,25.1 458.6,11.7 421.6,11.7 "/>
<path class="st0" d="M159,69.2h9.1v12.7c0,6.5-2.7,9.7-8.2,9.7c-5.2,0-7.8-2.9-7.8-8.8V32.3c0-5.9,2.6-8.8,7.7-8.8
	c4.9,0,7.3,2.8,7.3,8.4v11.8h14.8V32.3c0-6.8-2-12.2-5.9-16.3c-4-4-9.4-6.1-16.2-6.1c-6.9,0-12.5,2.1-16.7,6.2
	c-4.2,4.1-6.3,9.7-6.3,16.6v49.3c0,6.9,1.8,12.5,5.4,16.8c3.6,4.3,8.7,6.5,15.5,6.5c6.6,0,11.9-2.7,15.7-8.1l2.4,6.5h6.9V57.3H159
	V69.2z"/>
<polygon class="st0" points="96.9,11.5 80.8,103.8 95.5,103.8 98.1,84.6 113.6,84.6 116.3,103.8 131,103.8 114.9,11.5 "/>
<polygon class="st0" points="41.3,69.3 30.4,11.5 9.9,11.5 9.9,103.8 23.4,103.8 23.4,34.3 36.2,103.8 45.5,103.8 58.6,34.1 
	58.6,103.8 72.5,103.8 72.5,11.5 52.3,11.5 "/>
<path class="st0" d="M512.5,11.7h-43.4v13.4c0,0.1,0,0.2,0,0.3h13.7V104h15.2V25.4h14.5c0-0.2,0-0.4,0-0.6V11.7z"/>
<rect x="195.4" y="11.5" class="st0" width="15.2" height="92.3"/>
<path class="st0" d="M401.8,56.3v-0.3c3.8-1.6,6.4-3.9,7.8-6.8c1.4-2.9,2-7,2-12.3c0-8.7-1.6-15.1-4.7-19.2
	c-3.2-4.1-8.6-6.1-16.2-6.1h-23.8V104h22.8c8.8,0,14.8-2.1,18.1-6.3c3.3-4.2,4.9-10.9,4.9-20.1c0-6-0.7-10.7-2.2-13.9
	C409,60.4,406.1,57.9,401.8,56.3z"/>
<path class="st0" d="M553.9,55.4c-0.1,0.3-0.2,0.5-0.2,0.8C553.7,55.9,553.8,55.6,553.9,55.4z"/>
<path class="st0" d="M244.2,10c-7,0-12.6,2.1-16.9,6.2c-4.3,4.1-6.4,9.7-6.4,16.6v49.9c0,6.9,2.1,12.4,6.4,16.6
	c4.3,4.1,9.9,6.2,16.9,6.2c6.9,0,12.3-2,16.3-6c4-4,5.9-9.5,5.9-16.4V68.4h-14.8v15c0,5.6-2.4,8.4-7.3,8.4c-5.4,0-8.1-2.9-8.1-8.8
	V32.3c0-5.9,2.7-8.8,8.1-8.8c4.9,0,7.3,2.8,7.3,8.4v13.9h14.8V32.3c0-6.9-2-12.4-5.9-16.4C256.6,12,251.1,10,244.2,10z"/>
<path class="st0" d="M560,35.5c-0.2,0.5-0.3,1-0.5,1.5C559.7,36.5,559.8,36,560,35.5z"/>
<path class="st0" d="M604.4,53.4c-0.1,0.3-0.2,0.6-0.3,0.9C604.3,53.9,604.3,53.6,604.4,53.4z"/>
<path class="st0" d="M605.1,51.3c-0.1,0.3-0.2,0.6-0.3,0.9C604.9,51.9,605,51.6,605.1,51.3z"/>
<path class="st0" d="M603.9,55.4c-0.1,0.3-0.2,0.5-0.2,0.8C603.7,55.9,603.8,55.6,603.9,55.4z"/>
<path class="st0" d="M605.7,49.1c-0.1,0.3-0.2,0.6-0.3,0.9C605.5,49.7,605.6,49.4,605.7,49.1z"/>
<path class="st0" d="M553.3,57.3c-0.1,0.3-0.1,0.5-0.2,0.7C553.2,57.8,553.2,57.5,553.3,57.3z"/>
<path class="st0" d="M603.3,57.3c-0.1,0.3-0.1,0.5-0.2,0.7C603.2,57.8,603.3,57.5,603.3,57.3z"/>
<path class="st0" d="M606.4,46.8c-0.1,0.3-0.2,0.6-0.3,0.9C606.2,47.4,606.3,47.1,606.4,46.8z"/>
<path class="st0" d="M602.8,59.2c-0.1,0.2-0.1,0.4-0.2,0.6C602.7,59.6,602.8,59.4,602.8,59.2z"/>
<path class="st0" d="M607.5,43.4c-0.1,0.4-0.3,0.8-0.4,1.2C607.2,44.2,607.3,43.8,607.5,43.4z"/>
<path class="st0" d="M552.8,59.2c-0.1,0.2-0.1,0.4-0.2,0.6C552.7,59.6,552.7,59.4,552.8,59.2z"/>
<path class="st0" d="M610,35.5c-0.2,0.5-0.3,1-0.5,1.5C609.7,36.5,609.8,36,610,35.5z"/>
<path class="st0" d="M610.9,32.7c-0.2,0.5-0.3,1-0.5,1.6C610.6,33.8,610.7,33.2,610.9,32.7z"/>
<path class="st0" d="M612.8,26.9c-0.2,0.6-0.4,1.2-0.6,1.8C612.4,28.1,612.6,27.5,612.8,26.9z"/>
<path class="st0" d="M611.9,29.8c-0.2,0.6-0.4,1.1-0.6,1.7C611.5,31,611.7,30.4,611.9,29.8z"/>
<path class="st0" d="M608.3,40.8c-0.1,0.5-0.3,0.9-0.4,1.4C608,41.7,608.1,41.2,608.3,40.8z"/>
<path class="st0" d="M609.1,38.2c-0.2,0.5-0.3,1-0.5,1.4C608.8,39.1,609,38.7,609.1,38.2z"/>
<path class="st2" d="M522.1,11.7h-1.5v13h1.5h27.1v0.1c-4.6,12.3-8.8,25-12.4,37.9c-3.7,13.4-6.7,27.1-9,41.1H544
	c2.1-15.3,4.9-29.5,8.2-42.5c0.1-0.5,0.3-1.1,0.4-1.6c0.1-0.2,0.1-0.4,0.2-0.6c0.1-0.4,0.2-0.8,0.3-1.1c0.1-0.2,0.1-0.5,0.2-0.7
	c0.1-0.4,0.2-0.7,0.3-1.1c0.1-0.3,0.2-0.5,0.2-0.8c0.1-0.4,0.2-0.7,0.3-1.1c0.1-0.3,0.2-0.6,0.3-0.9c0.1-0.4,0.2-0.8,0.3-1.2
	c0.1-0.3,0.2-0.6,0.3-0.9c0.1-0.4,0.2-0.8,0.4-1.2c0.1-0.3,0.2-0.6,0.3-0.9c0.1-0.5,0.3-0.9,0.4-1.4c0.1-0.3,0.2-0.6,0.3-0.9
	c0.2-0.7,0.5-1.5,0.7-2.3c0.1-0.4,0.2-0.8,0.4-1.2c0.1-0.4,0.3-0.8,0.4-1.2c0.1-0.4,0.3-0.9,0.4-1.4c0.1-0.4,0.2-0.8,0.4-1.2
	c0.2-0.5,0.3-0.9,0.5-1.4c0.1-0.4,0.3-0.8,0.4-1.2c0.2-0.5,0.3-1,0.5-1.5c0.1-0.4,0.3-0.8,0.4-1.2c0.2-0.5,0.3-1,0.5-1.6
	c0.1-0.4,0.3-0.8,0.4-1.2c0.2-0.6,0.4-1.1,0.6-1.7c0.1-0.4,0.3-0.8,0.4-1.1c0.2-0.6,0.4-1.2,0.6-1.8c0.7-2.1,1.4-4.2,2.1-6.4v-8.8
	h-2.4H522.1z"/>
<path class="st2" d="M573,11.7h-2.4v13h1.5h27.2v0.1c-4.6,12.3-8.8,25-12.4,37.9c-3.7,13.4-6.7,27.1-9,41.1H594
	c2.1-15.3,4.9-29.5,8.2-42.5c0.1-0.5,0.3-1.1,0.4-1.6c0.1-0.2,0.1-0.4,0.2-0.6c0.1-0.4,0.2-0.8,0.3-1.1c0.1-0.2,0.1-0.5,0.2-0.7
	c0.1-0.4,0.2-0.7,0.3-1.1c0.1-0.3,0.2-0.5,0.2-0.8c0.1-0.4,0.2-0.7,0.3-1.1c0.1-0.3,0.2-0.6,0.3-0.9c0.1-0.4,0.2-0.8,0.3-1.2
	c0.1-0.3,0.2-0.6,0.3-0.9c0.1-0.4,0.2-0.8,0.4-1.2c0.1-0.3,0.2-0.6,0.3-0.9c0.1-0.5,0.3-0.9,0.4-1.4c0.1-0.3,0.2-0.6,0.3-0.9
	c0.2-0.7,0.5-1.5,0.7-2.3c0.1-0.4,0.2-0.8,0.4-1.2c0.1-0.4,0.3-0.8,0.4-1.2c0.1-0.4,0.3-0.9,0.4-1.4c0.1-0.4,0.2-0.8,0.4-1.2
	c0.2-0.5,0.3-0.9,0.5-1.4c0.1-0.4,0.3-0.8,0.4-1.2c0.2-0.5,0.3-1,0.5-1.5c0.1-0.4,0.3-0.8,0.4-1.2c0.2-0.5,0.3-1,0.5-1.6
	c0.1-0.4,0.3-0.8,0.4-1.2c0.2-0.6,0.4-1.1,0.6-1.7c0.1-0.4,0.3-0.8,0.4-1.1c0.2-0.6,0.4-1.2,0.6-1.8c0.7-2.1,1.4-4.2,2.1-6.4v-8.8
	h-2.4H573z"/>
<path class="st2" d="M620.5,11.7v13h1.5h27.2v0.1c-4.6,12.3-8.8,25-12.4,37.9c-3.7,13.4-6.7,27.1-9,41.1H644
	c2.1-15.3,4.9-29.5,8.2-42.5c2.3-9,6.6-22.7,12.8-40.9v-8.8h-42H620.5z"/>
<polygon class="st3" points="100.2,71.5 111.6,71.5 105.9,33.4 "/>
<path class="st0" d="M161.3,49.3c-0.5-0.5-0.9-1-1.2-1.6v1.6H161.3z"/>
<polygon class="st0" points="421.6,11.7 421.6,104 462.2,104 462.2,90.3 436.9,90.3 436.9,62.7 454.8,62.7 454.8,49.8 436.9,49.8 
	436.9,25.1 458.6,25.1 461.1,25.1 461.1,11.7 458.6,11.7 "/>
<polygon class="st0" points="100.2,71.5 111.6,71.5 105.9,33.4 "/>
<path class="st0" d="M401.8,56.3v-0.3c3.8-1.6,6.4-3.9,7.8-6.8c1.4-2.9,2-7,2-12.3c0-8.7-1.6-15.1-4.7-19.2
	c-3.2-4.1-8.6-6.1-16.2-6.1h-23.8V104h22.8c8.8,0,14.8-2.1,18.1-6.3c3.3-4.2,4.9-10.9,4.9-20.1c0-6-0.7-10.7-2.2-13.9
	C409,60.4,406.1,57.9,401.8,56.3z"/>
<polygon class="st0" points="469.1,11.7 466.6,11.7 466.6,25.4 469.1,25.4 482.9,25.4 482.9,104 498.1,104 498.1,25.4 512.6,25.4 
	514.1,25.4 514.1,11.7 512.5,11.7 "/>
<path class="st0" d="M522.1,11.7h-1.5v13h1.5h27.1v0.1c-4.6,12.3-8.8,25-12.4,37.9c-3.7,13.4-6.7,27.1-9,41.1H544
	c2.1-15.3,4.9-29.5,8.2-42.5c0.1-0.5,0.3-1.1,0.4-1.6c0.1-0.2,0.1-0.4,0.2-0.6c0.1-0.4,0.2-0.8,0.3-1.1c0.1-0.2,0.1-0.5,0.2-0.7
	c0.1-0.4,0.2-0.7,0.3-1.1c0.1-0.3,0.2-0.5,0.2-0.8c0.1-0.4,0.2-0.7,0.3-1.1c0.1-0.3,0.2-0.6,0.3-0.9c0.1-0.4,0.2-0.8,0.3-1.2
	c0.1-0.3,0.2-0.6,0.3-0.9c0.1-0.4,0.2-0.8,0.4-1.2c0.1-0.3,0.2-0.6,0.3-0.9c0.1-0.5,0.3-0.9,0.4-1.4c0.1-0.3,0.2-0.6,0.3-0.9
	c0.2-0.7,0.5-1.5,0.7-2.3c0.1-0.4,0.2-0.8,0.4-1.2c0.1-0.4,0.3-0.8,0.4-1.2c0.1-0.4,0.3-0.9,0.4-1.4c0.1-0.4,0.2-0.8,0.4-1.2
	c0.2-0.5,0.3-0.9,0.5-1.4c0.1-0.4,0.3-0.8,0.4-1.2c0.2-0.5,0.3-1,0.5-1.5c0.1-0.4,0.3-0.8,0.4-1.2c0.2-0.5,0.3-1,0.5-1.6
	c0.1-0.4,0.3-0.8,0.4-1.2c0.2-0.6,0.4-1.1,0.6-1.7c0.1-0.4,0.3-0.8,0.4-1.1c0.2-0.6,0.4-1.2,0.6-1.8c0.7-2.1,1.4-4.2,2.1-6.4v-8.8
	h-2.4H522.1z"/>
<path class="st0" d="M620.5,11.7v13h1.5h27.2v0.1c-4.6,12.3-8.8,25-12.4,37.9c-3.7,13.4-6.7,27.1-9,41.1H644
	c2.1-15.3,4.9-29.5,8.2-42.5c2.3-9,6.6-22.7,12.8-40.9v-8.8h-42H620.5z"/>
<path class="st0" d="M573,11.7h-2.4v13h1.5h27.2v0.1c-4.6,12.3-8.8,25-12.4,37.9c-3.7,13.4-6.7,27.1-9,41.1H594
	c2.1-15.3,4.9-29.5,8.2-42.5c0.1-0.5,0.3-1.1,0.4-1.6c0.1-0.2,0.1-0.4,0.2-0.6c0.1-0.4,0.2-0.8,0.3-1.1c0.1-0.2,0.1-0.5,0.2-0.7
	c0.1-0.4,0.2-0.7,0.3-1.1c0.1-0.3,0.2-0.5,0.2-0.8c0.1-0.4,0.2-0.7,0.3-1.1c0.1-0.3,0.2-0.6,0.3-0.9c0.1-0.4,0.2-0.8,0.3-1.2
	c0.1-0.3,0.2-0.6,0.3-0.9c0.1-0.4,0.2-0.8,0.4-1.2c0.1-0.3,0.2-0.6,0.3-0.9c0.1-0.5,0.3-0.9,0.4-1.4c0.1-0.3,0.2-0.6,0.3-0.9
	c0.2-0.7,0.5-1.5,0.7-2.3c0.1-0.4,0.2-0.8,0.4-1.2c0.1-0.4,0.3-0.8,0.4-1.2c0.1-0.4,0.3-0.9,0.4-1.4c0.1-0.4,0.2-0.8,0.4-1.2
	c0.2-0.5,0.3-0.9,0.5-1.4c0.1-0.4,0.3-0.8,0.4-1.2c0.2-0.5,0.3-1,0.5-1.5c0.1-0.4,0.3-0.8,0.4-1.2c0.2-0.5,0.3-1,0.5-1.6
	c0.1-0.4,0.3-0.8,0.4-1.2c0.2-0.6,0.4-1.1,0.6-1.7c0.1-0.4,0.3-0.8,0.4-1.1c0.2-0.6,0.4-1.2,0.6-1.8c0.7-2.1,1.4-4.2,2.1-6.4v-8.8
	h-2.4H573z"/>
<path class="st3" d="M665,3.7h-44.5c-1,0-1.9,0.2-2.8,0.5c-0.9-0.3-1.8-0.5-2.8-0.5h-44.5c-1,0-1.9,0.2-2.8,0.5
	c-0.9-0.3-1.8-0.5-2.8-0.5h-44.5c-1.2,0-2.2,0.2-3.2,0.7c-1-0.4-2.1-0.7-3.2-0.7h-47.4c-1,0-1.9,0.2-2.7,0.5
	c-0.9-0.3-1.8-0.5-2.7-0.5h-39.5c-4.4,0-8,3.6-8,8v1.8c-0.1-0.2-0.2-0.3-0.4-0.5c-4.7-6.1-12.3-9.3-22.6-9.3h-23.8c-4.4,0-8,3.6-8,8
	v22.6c-2.4-2.6-5.7-4.8-9.9-6.7l0-0.1c0,0,0,0,0,0c0,0,0,0,0,0l0.4-1.2c0,0,0,0,0,0l0.1-0.2c0.6-1.5,0.8-3.1,0.7-4.7
	c-0.3-3.9-2.6-7.3-6.1-9c-0.1,0-0.1-0.1-0.2-0.1c-0.1-0.1-0.3-0.1-0.4-0.2c-0.1,0-0.1-0.1-0.2-0.1c0,0-0.1,0-0.1,0
	c-0.1,0-0.1-0.1-0.2-0.1l-1.7-0.6c0,0,0,0,0,0l-1.8-0.7c0,0,0,0,0,0l-1.8-0.7c0,0,0,0,0,0l-1.8-0.7c0,0,0,0,0,0L334,8.5c0,0,0,0,0,0
	l-1.8-0.7l0,0l-1.8-0.7c0,0,0,0,0,0l-1.5-0.6c-1.8-1.8-4.2-2.9-6.8-3.1c0,0-0.1,0-0.1,0c-0.2,0-0.3,0-0.5,0c-0.1,0-0.1,0-0.2,0
	c0,0-0.1,0-0.1,0c-0.1,0-0.1,0-0.2,0h0c0,0,0,0-0.1,0l-0.7,0c-1-0.3-2.1-0.5-3.2-0.5c-0.2,0-0.5,0-0.7,0c0,0,0,0,0,0c0,0,0,0,0,0
	c-0.9,0.1-1.8,0.2-2.7,0.5l-0.5,0l-1.9,0l-1.9,0c0,0,0,0,0,0l-1.9,0l-1.9,0l-1.9,0c0,0,0,0,0,0l-1.9,0h0l-1.9,0c0,0,0,0,0,0l-1.9,0
	l-0.3,0c-1.5,0-3,0.3-4.5,1c0,0,0,0,0,0c-1.3,0.6-2.4,1.4-3.4,2.4l0,0c0,0,0,0,0,0c-0.9,0.9-1.6,2-2.1,3.1c0,0,0,0,0,0c0,0,0,0,0,0
	c0,0,0,0,0,0c-0.1,0.2-0.2,0.5-0.3,0.7c-0.3,0.9-0.6,1.8-0.7,2.8c0,0,0,0.1,0,0.1c0,0.3-0.1,0.7-0.1,1.1l0,1v0l0,1.3c0,0,0,0,0,0
	c0,0,0,0,0,0l0,1.3c0,0,0,0,0,0l0,1.3c0,0,0,0,0,0s0,0,0,0l0,1.3c0,0,0,0,0,0l0,1.3c0,0,0,0,0,0s0,0,0,0l0,1.3c0,0,0,0,0,0l0,1.3
	c0,0,0,0,0,0c0,0,0,0,0,0l0,0.5c-4.2,1.3-7.8,3-10.7,4.9c-0.6,0.4-1.1,0.8-1.6,1.2c-0.2-8.6-2.9-15.7-8.2-21.1
	c-5.5-5.6-12.9-8.4-22-8.4c-9.1,0-16.7,2.8-22.4,8.5c-1.2,1.1-2.2,2.4-3.2,3.6v-2.6c0-4.4-3.6-8-8-8h-15.2c-4.4,0-8,3.6-8,8v7.7
	c-1.4-3.3-3.3-6.2-5.8-8.7C176.1,4.8,168.8,2,159.8,2c-9,0-16.5,2.9-22.3,8.5c-5.8,5.7-8.7,13.2-8.7,22.3v11.6l-6-34.2
	c-0.7-3.8-4-6.6-7.9-6.6h-18c-3.9,0-7.2,2.8-7.9,6.6L80.5,59V11.5c0-4.4-3.6-8-8-8H52.3c-3.8,0-7.1,2.7-7.9,6.5l-3.1,16.2l-3-16.2
	c-0.7-3.8-4-6.5-7.9-6.5H9.9c-4.4,0-8,3.6-8,8v92.3c0,4.4,3.6,8,8,8h13.4c2.6,0,4.9-1.3,6.4-3.2c1.5,2,3.8,3.2,6.4,3.2h9.3
	c2.7,0,5.1-1.3,6.6-3.5c1.4,2.1,3.9,3.5,6.6,3.5h13.8c1.5,0,2.9-0.4,4.1-1.2c1.2,0.8,2.7,1.2,4.2,1.2h14.7c4,0,7.4-2.9,7.9-6.9
	l1.7-12.3h1.5l1.7,12.3c0.6,4,3.9,6.9,7.9,6.9H131c2.4,0,4.6-1,6.1-2.9c0.6-0.7,1-1.5,1.4-2.3c3.9,3.5,9.9,6.7,19.1,6.7
	c4.9,0,9.3-1.1,13.2-3.2c1.4,1.1,3.1,1.7,4.9,1.7h6.9c2.6,0,4.9-1.3,6.4-3.2c1.5,1.9,3.8,3.2,6.4,3.2h15.2c4.4,0,8-3.6,8-8v-2.6
	c0.9,1.3,2,2.5,3.2,3.6c5.8,5.6,13.3,8.5,22.4,8.5c9.1,0,16.5-2.8,22-8.4c5.5-5.5,8.3-12.9,8.3-22V68.4c0-4.4-3.6-8-8-8h-14.8
	c-3.3,0-6.1,2-7.3,4.8V49.1c1.2,2.8,4.1,4.8,7.3,4.8h14.8c1.3,0,2.5-0.3,3.6-0.9l0.1,0.1c0,0,0,0.1,0.1,0.1c0.1,0.1,0.2,0.3,0.3,0.4
	c0.1,0.1,0.1,0.2,0.2,0.3c0,0.1,0.1,0.1,0.1,0.2c0.1,0.1,0.2,0.3,0.3,0.4l0,0c0.1,0.1,0.1,0.1,0.2,0.2c0,0,0,0,0,0
	c0.1,0.1,0.3,0.3,0.4,0.4c0.1,0.1,0.1,0.2,0.2,0.2c0.1,0.1,0.1,0.1,0.2,0.2c0.1,0.1,0.2,0.2,0.3,0.3c0,0,0.1,0.1,0.1,0.1
	c0.1,0.1,0.1,0.1,0.2,0.2c0.1,0.1,0.3,0.3,0.5,0.4c0,0,0.1,0.1,0.1,0.1c0.1,0.1,0.2,0.1,0.2,0.2c0.1,0.1,0.2,0.2,0.3,0.3l0,0
	c0.1,0.1,0.2,0.2,0.3,0.3c0.2,0.1,0.4,0.3,0.6,0.5l0,0c0,0,0,0,0.1,0.1l0,0c0,0,0,0,0,0c0,0,0.1,0.1,0.1,0.1
	c0.1,0.1,0.3,0.2,0.4,0.3l0.1,0l0.1,0c0.1,0.1,0.2,0.1,0.3,0.2c0.1,0.1,0.2,0.2,0.3,0.2l0.1,0.1c0.1,0.1,0.2,0.2,0.4,0.2
	c0,0,0.1,0,0.1,0.1c0.1,0,0.1,0.1,0.2,0.1c0.2,0.1,0.5,0.3,0.7,0.4c0,0,0,0,0,0l0.3,0.2l0,0c0.2,0.1,0.3,0.2,0.5,0.3
	c0,0,0.1,0,0.1,0.1c0,0,0.1,0,0.1,0c0.1,0,0.1,0.1,0.2,0.1c0,0,0,0,0,0c0.2,0.1,0.5,0.2,0.7,0.4c0.1,0.1,0.3,0.1,0.4,0.2
	c0.2,0.1,0.5,0.2,0.7,0.3c0.1,0,0.2,0.1,0.2,0.1c0,0,0,0,0.1,0l0.1,0c0.4,0.2,0.8,0.3,1.2,0.5c0,0,0,0,0,0c0,0,0,0,0.1,0
	c0.4,0.2,0.9,0.4,1.3,0.5l0.1,0c0.1,0,0.2,0.1,0.3,0.1c0.6,0.2,1.1,0.4,1.7,0.6c0,0.4,0.1,0.8,0.1,1.2c0,0.3,0,0.6,0,1l0,0.2l0,0.2
	c0,0.6-0.1,1.1-0.1,1.7l0,0.1l0,0.2l0,0l0,0.2c0,0.4-0.1,0.8-0.1,1.2l0,0.2l0,0.1l0,0.2l0,0.2c0,0.4-0.1,0.8-0.1,1.2l-0.1,0.7l0,0.1
	c0,0.3-0.1,0.7-0.1,1c0,0,0,0.1,0,0.1c0,0.2,0,0.4-0.1,0.6l0,0.1c0,0.4-0.1,0.7-0.1,1.1l0,0.1l-0.1,0.5c-0.1,0.5-0.1,0.9-0.2,1.3
	l0,0.2l0,0.2l-0.1,1.1l0,0.1l0,0.2c-0.1,0.5-0.1,1-0.2,1.4c0,0,0,0,0,0.1l0,0.3c-0.1,0.4-0.1,0.7-0.2,1.1c0,0,0,0,0,0.1
	c0,0.1,0,0.2,0,0.3c0,0,0,0,0,0.1c-0.1,0.4-0.1,0.8-0.2,1.1c0,0.1,0,0.1,0,0.2c-0.1,0.4-0.1,0.8-0.2,1.2l0,0.1l0,0.3
	c0,0.3-0.1,0.6-0.1,0.9l0,0.2l0,0.1l0,0c-0.1,0.3-0.1,0.7-0.2,1l0,0.1l0,0.1c0,0,0,0.1,0,0.1c-0.6,3.4-1.2,5.6-1.4,6.4
	c-0.2,0.9-0.3,1.7-0.2,2.6c0,0.4,0.1,0.7,0.2,1.1c0,0.1,0.1,0.3,0.1,0.4c0,0.1,0,0.1,0.1,0.2c0,0.2,0.1,0.4,0.2,0.6c0,0,0,0.1,0,0.1
	c0,0.1,0,0.1,0,0.2c0,0.1,0.1,0.2,0.1,0.4c0,0,0,0,0,0c0,0,0,0,0,0c0,0,0,0.1,0,0.1c0,0,0,0.1,0.1,0.1c0,0,0,0,0,0.1
	c0,0.1,0.1,0.2,0.1,0.2c0,0,0,0.1,0,0.1c0,0.1,0.1,0.2,0.1,0.3c0,0.1,0.1,0.2,0.1,0.3c0,0,0,0,0,0.1c0,0.1,0.1,0.1,0.1,0.2
	c0,0,0,0.1,0,0.1c0,0,0,0.1,0.1,0.1c0.1,0.1,0.1,0.3,0.2,0.4c0,0,0,0,0,0.1c0,0,0,0,0,0.1c0,0,0,0,0,0c0,0,0,0.1,0.1,0.1
	c0,0.1,0.1,0.1,0.1,0.2c0,0.1,0.1,0.1,0.1,0.2c0,0,0,0,0,0c0,0,0,0,0,0l0,0c0,0,0,0.1,0.1,0.1c0.1,0.1,0.1,0.2,0.2,0.3c0,0,0,0,0,0
	c0,0,0.1,0.1,0.1,0.1c0,0,0,0,0,0c0.1,0.1,0.1,0.2,0.2,0.3c0.1,0.1,0.1,0.2,0.2,0.3c0,0,0.1,0.1,0.1,0.1c0,0,0,0,0,0
	c0,0,0,0.1,0.1,0.1c0,0,0,0,0,0c0.1,0.1,0.2,0.2,0.3,0.3c0,0,0,0.1,0.1,0.1c0.1,0.1,0.2,0.2,0.3,0.3c0,0,0,0,0,0
	c0.1,0.1,0.2,0.2,0.3,0.3c0,0,0,0,0,0c0,0,0.1,0.1,0.1,0.1c0,0,0,0,0,0c0,0,0,0,0,0c0,0,0.1,0.1,0.1,0.1c0,0,0.1,0.1,0.1,0.1
	c0,0,0.1,0.1,0.1,0.1c0.1,0.1,0.2,0.1,0.2,0.2c0,0,0,0,0,0c0,0,0.1,0.1,0.1,0.1c0,0,0.1,0.1,0.1,0.1c0,0,0,0,0,0c0,0,0,0,0.1,0
	c0,0,0,0,0.1,0.1l0.1,0.1c0.1,0,0.1,0.1,0.2,0.1c0,0,0.1,0.1,0.1,0.1c0,0,0.1,0,0.1,0.1c0,0,0,0,0,0c0,0,0,0,0,0c0,0,0,0,0,0
	c0,0,0,0,0,0c0.1,0,0.1,0.1,0.2,0.1c0,0,0.1,0.1,0.1,0.1c0,0,0.1,0.1,0.1,0.1c0,0,0.1,0.1,0.1,0.1c0,0,0.1,0,0.1,0.1
	c0.1,0,0.1,0.1,0.2,0.1c0,0,0,0,0,0c0,0,0,0,0,0c0.1,0,0.1,0.1,0.2,0.1c0.1,0,0.1,0.1,0.2,0.1c0,0,0,0,0.1,0c0.1,0,0.1,0.1,0.2,0.1
	c0,0,0,0,0,0c0,0,0,0,0,0c0.1,0,0.1,0.1,0.2,0.1c0,0,0,0,0,0c0,0,0,0,0,0c0,0,0,0,0,0c0,0,0.1,0.1,0.1,0.1c0,0,0,0,0.1,0
	c0.1,0,0.1,0.1,0.2,0.1c0,0,0.1,0.1,0.2,0.1c0.1,0,0.1,0.1,0.2,0.1c0,0,0.1,0,0.1,0.1c0.1,0,0.1,0.1,0.2,0.1c0.1,0,0.2,0.1,0.2,0.1
	c0.1,0,0.2,0.1,0.3,0.1l0.1,0l0.1,0c0.1,0,0.1,0.1,0.2,0.1c0,0,0.1,0,0.1,0.1l0,0c0,0,0,0,0.1,0c0.1,0,0.1,0.1,0.2,0.1
	c0,0,0.1,0,0.1,0c0.1,0,0.2,0.1,0.3,0.1c0,0,0,0,0.1,0c0,0,0.1,0,0.1,0.1c0,0,0,0,0,0l0,0c0.1,0,0.2,0.1,0.2,0.1
	c0.1,0,0.1,0,0.2,0.1c0,0,0.1,0,0.1,0c0.1,0.1,0.3,0.1,0.4,0.2l0.1,0c0.1,0,0.2,0.1,0.3,0.1c0,0,0,0,0,0c0.1,0,0.2,0.1,0.3,0.1
	l0.2,0.1l0.2,0.1c0,0,0,0,0.1,0c0,0,0,0,0,0c0.1,0,0.2,0.1,0.3,0.1c0.1,0,0.2,0.1,0.3,0.1c0,0,0.1,0,0.1,0l0,0l0.2,0.1
	c0,0,0.1,0,0.1,0l0.1,0c0,0,0,0,0.1,0l0.2,0.1l0,0l0.1,0c0.1,0.1,0.3,0.1,0.4,0.1l0.1,0l0.2,0.1l0,0c0.1,0,0.1,0,0.2,0.1
	c0.1,0,0.1,0,0.2,0.1c0,0,0.1,0,0.1,0c0.1,0,0.1,0,0.2,0.1c0.1,0,0.1,0,0.2,0c0.1,0,0.2,0.1,0.3,0.1l0.2,0c0,0,0,0,0.1,0l0.1,0
	l0.3,0.1c0,0,0,0,0,0c0.1,0,0.1,0,0.1,0c0,0,0,0,0.1,0l0.1,0l0,0c0.1,0,0.1,0,0.2,0.1l0.1,0c0,0,0,0,0,0l0.1,0c0,0,0,0,0,0
	c0.1,0,0.3,0.1,0.4,0.1c0.1,0,0.1,0,0.2,0l0.1,0c0.1,0,0.2,0,0.3,0.1c0.1,0,0.1,0,0.2,0l0.3,0.1l0.1,0c0,0,0,0,0.1,0
	c0.1,0,0.2,0.1,0.3,0.1c0.1,0,0.1,0,0.2,0c0.1,0,0.3,0.1,0.5,0.1c0.1,0,0.1,0,0.2,0c0.1,0,0.2,0,0.2,0.1c0.3,0.1,0.6,0.1,0.9,0.2
	c0.1,0,0.2,0,0.3,0l0.2,0l0.1,0c0,0,0.1,0,0.1,0c0.1,0,0.1,0,0.2,0c0,0,0.1,0,0.1,0c0,0,0,0,0,0l0.1,0l0.2,0l0,0
	c0.1,0,0.3,0.1,0.4,0.1l0.2,0l0.1,0c0,0,0,0,0,0l0.2,0c0.1,0,0.2,0,0.2,0c0.3,0,0.5,0.1,0.8,0.1c0.1,0,0.2,0,0.3,0
	c0.9,0.1,1.9,0.2,2.8,0.3c0.1,0,0.2,0,0.2,0l0.3,0l0.1,0c0.1,0,0.3,0,0.5,0l0.1,0c0,0,0.1,0,0.1,0v0l0,0c0,0,0.1,0,0.1,0l0.4,0
	l0.2,0l0.3,0c0,0,0.1,0,0.1,0l0.2,0l0.1,0c0.1,0,0.2,0,0.2,0l0.3,0l0.1,0c0.1,0,0.2,0,0.3,0l0.1,0c0.1,0,0.1,0,0.2,0c0,0,0,0,0,0
	l0.1,0c0.1,0,0.1,0,0.2,0c0,0,0.1,0,0.1,0c0,0,0,0,0,0l0.3,0c0,0,0.1,0,0.1,0v0l0.1,0l0.1,0c0,0,0,0,0.1,0l0.1,0c0,0,0.1,0,0.1,0
	c0,0,0.1,0,0.1,0c0,0,0.1,0,0.1,0c0,0,0.1,0,0.2,0l0.1,0c0,0,0,0,0,0l0,0c0,0,0,0,0,0c0.1,0,0.1,0,0.2,0c0,0,0,0,0,0
	c0,0,0.1,0,0.1,0l0.1,0c0,0,0.1,0,0.1,0c0,0,0,0,0,0c0.1,0,0.1,0,0.2,0c0,0,0,0,0,0c0,0,0,0,0.1,0l0,0l0.2,0l0.1,0c0,0,0,0,0,0
	c0.1,0,0.1,0,0.2,0c0,0,0.1,0,0.1,0h0.1l0.1,0l0.1,0c0.1,0,0.1,0,0.2,0l0.1,0c0,0,0,0,0,0c0,0,0,0,0,0c0,0,0,0,0,0c0,0,0,0,0.1,0
	c0.1,0,0.1,0,0.2,0l0,0c0,0,0.1,0,0.1,0h0c0,0,0,0,0,0c0.1,0,0.2,0,0.3,0c0.1,0,0.2,0,0.2,0l0,0c0.1,0,0.1,0,0.2,0c0,0,0,0,0.1,0
	l0,0c0,0,0.1,0,0.1,0l0.1,0c0.1,0,0.2,0,0.3,0c0.1,0,0.1,0,0.2,0c0,0,0.1,0,0.1,0l0,0v0c0,0,0,0,0,0c0.1,0,0.2,0,0.4,0l0.1,0
	c0,0,0.1,0,0.1,0c0,0,0,0,0.1,0c0.1,0,0.2,0,0.4,0c0,0,0,0,0,0c0,0,0,0,0,0c0,0,0.1,0,0.1,0c0,0,0,0,0.1,0c0,0,0,0,0.1,0
	c0.1,0,0.1,0,0.2,0l0.1,0c0,0,0,0,0,0c0,0,0,0,0,0c0,0,0,0,0,0c0.1,0,0.1,0,0.2,0l0.1,0c0,0,0.1,0,0.1,0c0,0,0.1,0,0.1,0
	c0.1,0,0.1,0,0.2,0c0,0,0,0,0,0c0.1,0,0.1,0,0.2,0c0.1,0,0.1,0,0.2,0c0,0,0,0,0.1,0c0,0,0.1,0,0.1,0c0.1,0,0.2,0,0.3,0
	c0,0,0.1,0,0.1,0c0,0,0,0,0,0c0,0,0.1,0,0.1,0l0,0c0,0,0.1,0,0.1,0c0.1,0,0.1,0,0.2,0l0,0c0,0,0,0,0,0c0,0,0,0,0,0c0,0,0,0,0,0
	c0,0,0.1,0,0.1,0l0.1,0c0,0,0,0,0,0c0.1,0,0.2,0,0.2,0c0,0,0,0,0,0c0.1,0,0.1,0,0.2,0c0,0,0.1,0,0.1,0c0,0,0,0,0,0c0,0,0.1,0,0.1,0
	c0,0,0,0,0,0c0,0,0.1,0,0.1,0c0,0,0.1,0,0.1,0l0,0c0.1,0,0.1,0,0.2,0c0,0,0,0,0,0c0,0,0,0,0,0c0,0,0,0,0,0c0,0,0.1,0,0.1,0
	c0,0,0,0,0.1,0c0.1,0,0.1,0,0.2,0l0,0v0c0,0,0,0,0.1,0l0,0c0,0,0.1,0,0.1,0c0.1,0,0.1,0,0.2,0l0,0l0.1,0c0.1,0,0.1,0,0.2,0
	c0,0,0.1,0,0.1,0c0,0,0,0,0.1,0c0,0,0,0,0.1,0l0,0c0,0,0,0,0.1,0c0.1,0,0.1,0,0.2,0c0,0,0,0,0,0c0,0,0.1,0,0.1,0c0,0,0,0,0.1,0
	l0.1,0c0,0,0,0,0,0c0.1,0,0.1,0,0.2,0c0.1,0,0.1,0,0.2,0c0,0,0,0,0,0l0.1,0c0,0,0.1,0,0.1,0l0,0c0.1,0,0.1,0,0.2,0c0,0,0,0,0,0
	c0,0,0.1,0,0.1,0c0,0,0,0,0.1,0c0.1,0,0.1,0,0.2,0c0.1,0,0.1,0,0.2,0c0,0,0,0,0.1,0c0,0,0,0,0,0c0.1,0,0.1,0,0.2,0c0,0,0.1,0,0.1,0
	c0,0,0,0,0,0c0.1,0,0.2,0,0.3,0c0,0,0.1,0,0.1,0c0.1,0,0.1,0,0.2,0c0,0,0.1,0,0.1,0l0,0c0,0,0,0,0,0l0,0c0,0,0.1,0,0.1,0
	c0,0,0.1,0,0.1,0c0,0,0,0,0.1,0c0,0,0.1,0,0.1,0c0,0,0.1,0,0.1,0c0,0,0.1,0,0.1,0c0.1,0,0.2,0,0.2,0c0,0,0,0,0,0c0,0,0.1,0,0.1,0
	c0,0,0,0,0,0c0.1,0,0.1,0,0.2,0c0,0,0.1,0,0.1,0c0.1,0,0.1,0,0.2,0c0,0,0,0,0,0c0,0,0.1,0,0.1,0l0,0c0,0,0.1,0,0.1,0
	c0,0,0.1,0,0.2,0l0,0c0,0,0.1,0,0.1,0c0,0,0,0,0.1,0c0,0,0,0,0.1,0c0.1,0,0.1,0,0.2,0c0,0,0.1,0,0.1,0c0,0,0,0,0,0c0,0,0,0,0,0
	c0.1,0,0.1,0,0.2,0c0,0,0,0,0.1,0c0,0,0.1,0,0.1,0c0.1,0,0.1,0,0.2,0c0,0,0,0,0,0c0,0,0,0,0,0c0,0,0,0,0,0c0,0,0,0,0.1,0
	c0,0,0.1,0,0.1,0c0,0,0,0,0,0c0.1,0,0.1,0,0.2,0c0,0,0.1,0,0.1,0c0,0,0,0,0,0c0,0,0,0,0,0c0,0,0,0,0,0c0,0,0.1,0,0.1,0
	c0,0,0.1,0,0.1,0c0,0,0,0,0,0c0,0,0,0,0,0c0,0,0,0,0.1,0c0.1,0,0.1,0,0.2,0l0.1,0c0,0,0,0,0,0c0.1,0,0.1,0,0.2-0.1c0,0,0,0,0,0
	c0,0,0,0,0,0c0,0,0,0,0,0c0,0,0,0,0.1,0c0,0,0,0,0,0c0,0,0,0,0,0c0,0,0.1,0,0.1,0c0,0,0,0,0.1,0c0,0,0,0,0,0c0.1,0,0.1,0,0.2,0
	c0,0,0,0,0,0c0,0,0.1,0,0.1,0c0,0,0.1,0,0.1,0c0,0,0,0,0.1,0c0,0,0,0,0,0c0,0,0.1,0,0.1,0c0,0,0,0,0.1,0c0,0,0,0,0,0c0,0,0,0,0,0
	c0,0,0,0,0.1,0c0,0,0,0,0,0c0,0,0,0,0.1,0c0,0,0,0,0,0c0.1,0,0.2,0,0.2-0.1l0,0c0.1,0,0.1,0,0.2-0.1c0,0,0,0,0,0c0,0,0,0,0,0
	c0,0,0.1,0,0.1,0c0,0,0,0,0.1,0c0,0,0,0,0.1,0c0,0,0,0,0.1,0c0,0,0,0,0.1,0c0,0,0.1,0,0.1,0c0,0,0,0,0.1,0c0,0,0.1,0,0.1,0
	c0,0,0.1,0,0.1,0c0,0,0,0,0,0c0,0,0,0,0,0c0,0,0,0,0,0c0.1,0,0.2,0,0.2-0.1l0,0c0,0,0,0,0.1,0c0,0,0,0,0,0c0.1,0,0.1,0,0.2-0.1
	c0,0,0,0,0.1,0c0,0,0,0,0.1,0c0,0,0,0,0.1,0l0,0c0,0,0,0,0.1,0c0,0,0.1,0,0.1,0c0,0,0,0,0,0c0,0,0,0,0.1,0c0,0,0,0,0.1,0
	c0.1,0,0.1-0.1,0.2-0.1c0,0,0.1,0,0.1,0c0,0,0,0,0,0c0,0,0.1,0,0.1,0c0.1,0,0.1,0,0.2-0.1c0,0,0,0,0.1,0c0,0,0,0,0,0
	c0.1,0,0.1,0,0.2-0.1c0,0,0,0,0,0c0,0,0,0,0,0c0,0,0.1,0,0.1,0c0,0,0.1,0,0.1,0c0,0,0,0,0,0l0,0c0,0,0,0,0.1,0c0,0,0,0,0,0l0,0
	c0,0,0,0,0,0c0,0,0.1,0,0.1-0.1c0,0,0,0,0,0c0,0,0,0,0,0c0,0,0,0,0.1,0c0.1,0,0.1-0.1,0.2-0.1c0,0,0,0,0,0c0,0,0,0,0,0
	c0,0,0.1,0,0.1,0c0,0,0,0,0.1,0c0,0,0,0,0,0c0,0,0,0,0.1,0c0.1,0,0.1,0,0.2-0.1c0,0,0.1,0,0.1-0.1c0,0,0,0,0.1,0
	c0.1,0,0.1,0,0.2-0.1c0,0,0,0,0,0c0,0,0.1,0,0.1,0c0,0,0.1,0,0.1-0.1c0.1,0,0.1-0.1,0.2-0.1c0,0,0,0,0,0c0.1,0,0.1-0.1,0.2-0.1
	c0,0,0.1,0,0.1,0c0,0,0.1,0,0.1,0c0.1,0,0.2-0.1,0.3-0.1c0,0,0,0,0,0c0,0,0,0,0,0c0.1,0,0.2-0.1,0.3-0.1c0,0,0.1,0,0.1,0
	c0,0,0,0,0,0c0,0,0,0,0,0c0,0,0.1,0,0.1-0.1c0,0,0,0,0,0c0,0,0,0,0.1,0c0,0,0.1,0,0.1,0c0,0,0,0,0,0c0.1,0,0.1-0.1,0.2-0.1
	c0,0,0.1,0,0.1-0.1c0.1,0,0.1-0.1,0.2-0.1c0,0,0,0,0,0c0,0,0,0,0,0c0,0,0,0,0.1,0c0,0,0.1,0,0.1-0.1c0,0,0.1,0,0.1-0.1
	c0.1,0,0.1-0.1,0.2-0.1c0,0,0,0,0,0c0,0,0,0,0,0c0,0,0.1-0.1,0.1-0.1c0,0,0.1,0,0.1-0.1c0,0,0,0,0,0c0,0,0,0,0,0c0,0,0.1,0,0.1-0.1
	c0,0,0.1-0.1,0.1-0.1c0.2-0.1,0.4-0.3,0.6-0.4c5.3-3.5,6.6-7.6,6.7-10.5c0.1-0.9,0-1.8-0.3-2.6c-0.3-1.2-1.9-7.1-3.3-15.5
	c0,0,0-0.1,0-0.1c-0.7-4.2-1.2-8.4-1.5-12.4c0,0,0,0,0,0c-0.1-0.6-0.1-1.2-0.1-1.8c0-0.2,0-0.4,0.1-0.5c0.2-0.1,0.4-0.1,0.6-0.2
	c0.2-0.1,0.4-0.1,0.5-0.2l0.2-0.1l0,0c0.3-0.1,0.6-0.2,0.9-0.3l0.1,0c0,0,0,0,0.1,0c0.2-0.1,0.3-0.1,0.5-0.2
	c0.4-0.2,0.8-0.3,1.2-0.5c0.2-0.1,0.5-0.2,0.7-0.3c0.3-0.2,0.7-0.3,1.1-0.5c0.2-0.1,0.4-0.2,0.6-0.3c0.4-0.2,0.7-0.4,1.1-0.6l0.1,0
	c0.2-0.1,0.3-0.2,0.5-0.3c0.6-0.3,1.1-0.6,1.5-0.9c1.5-1,2.8-2.1,3.9-3.2c0.1-0.1,0.2-0.2,0.3-0.3V104c0,4.4,3.6,8,8,8h22.8
	c11,0,19-3,24-8.9v0.9c0,4.4,3.6,8,8,8h40.5c4.4,0,8-3.6,8-8V90.3c0-4.4-3.6-8-8-8h-17.3V70.7h9.9c4.4,0,8-3.6,8-8V49.8
	c0-4.4-3.6-8-8-8h-9.9v-8.7h16.3c0.8,0,1.6-0.1,2.4-0.4c1,0.4,2,0.6,3.1,0.6h8.2V104c0,4.4,3.6,8,8,8h15.2c4.4,0,8-3.6,8-8V33.4h8
	c1.4,0,2.8-0.4,4-1.1c0.8,0.3,1.6,0.4,2.5,0.4h17.3c-3.2,9.1-6.1,18.5-8.7,27.9c-3.8,13.6-6.9,27.7-9.2,42c-0.4,2.3,0.3,4.7,1.8,6.5
	s3.8,2.8,6.1,2.8H544c4,0,7.4-2.9,7.9-6.9c2.1-15,4.8-29,8-41.7c1.8-7.1,5-17.5,9.4-30.7c0.4,0.1,0.8,0.1,1.2,0.1h17.3
	c-3.2,9.1-6.1,18.5-8.7,27.9c-3.8,13.6-6.9,27.7-9.2,42c-0.4,2.3,0.3,4.7,1.8,6.5s3.8,2.8,6.1,2.8H594c4,0,7.4-2.9,7.9-6.9
	c2.1-15,4.8-29,8-41.7c1.8-7.1,5-17.5,9.4-30.7c0.4,0.1,0.8,0.1,1.2,0.1h17.3c-3.2,9.1-6.1,18.5-8.7,27.9c-3.8,13.6-6.9,27.7-9.2,42
	c-0.4,2.3,0.3,4.7,1.8,6.5s3.8,2.8,6.1,2.8H644c4,0,7.4-2.9,7.9-6.9c2.1-15,4.8-29,8-41.7c2.2-8.8,6.5-22.3,12.6-40.3
	c0.3-0.8,0.4-1.7,0.4-2.6v-8.8C673,7.3,669.4,3.7,665,3.7z M72.5,103.8H58.6V34.1l-13.2,69.7h-9.3L23.4,34.3v69.5H9.9V11.5h20.5
	l10.9,57.8l11-57.8h20.2V103.8z M116.3,103.8l-2.7-19.2H98.1l-2.7,19.2H80.8l16.1-92.3h18l16.1,92.3H116.3z M182.6,103.8h-6.9
	l-2.4-6.5c-3.8,5.4-9.1,8.1-15.7,8.1c-6.7,0-11.9-2.2-15.5-6.5c-3.6-4.3-5.4-9.9-5.4-16.8V32.7c0-6.9,2.1-12.4,6.3-16.6
	c4.2-4.1,9.8-6.2,16.7-6.2c6.8,0,12.2,2,16.2,6.1c4,4,5.9,9.5,5.9,16.3v11.4H167V32c0-5.6-2.4-8.4-7.3-8.4c-5.1,0-7.7,2.9-7.7,8.8
	v50.4c0,5.9,2.6,8.8,7.8,8.8c5.5,0,8.2-3.2,8.2-9.7V69.2H159V57.3h23.6V103.8z M210.6,103.8h-15.2V11.5h15.2V103.8z M266.5,45.9
	h-14.8V32c0-5.6-2.4-8.4-7.3-8.4c-5.4,0-8.1,2.9-8.1,8.8V83c0,5.9,2.7,8.8,8.1,8.8c4.9,0,7.3-2.8,7.3-8.4v-15h14.8V83
	c0,6.9-2,12.4-5.9,16.4c-4,4-9.4,6-16.3,6c-7,0-12.6-2.1-16.9-6.2c-4.3-4.1-6.4-9.7-6.4-16.6V32.7c0-6.9,2.1-12.4,6.4-16.6
	c4.3-4.1,9.9-6.2,16.9-6.2c6.9,0,12.3,2,16.3,6c4,4,5.9,9.5,5.9,16.4V45.9z M407.8,97.7c-3.3,4.2-9.3,6.3-18.1,6.3h-22.8V11.7h23.8
	c7.7,0,13.1,2,16.2,6.1c3.2,4.1,4.7,10.5,4.7,19.2c0,5.3-0.7,9.4-2,12.3c-1.4,2.9-4,5.2-7.8,6.8v0.3c4.3,1.6,7.1,4,8.6,7.3
	c1.5,3.2,2.2,7.9,2.2,13.9C412.7,86.7,411.1,93.5,407.8,97.7z M461.1,25.1h-2.5h-21.8v24.7h17.9v12.9h-17.9v27.6h25.3V104h-40.5
	V11.7h37h2.5V25.1z M514.1,25.4h-1.5h-14.5V104h-15.2V25.4h-13.7h-2.5V11.7h2.5h43.4h1.5V25.4z M565,20.5c-0.7,2.2-1.5,4.3-2.1,6.4
	c-0.2,0.6-0.4,1.2-0.6,1.8c-0.1,0.4-0.3,0.8-0.4,1.1c-0.2,0.6-0.4,1.1-0.6,1.7c-0.1,0.4-0.3,0.8-0.4,1.2c-0.2,0.5-0.3,1-0.5,1.6
	c-0.1,0.4-0.3,0.8-0.4,1.2c-0.2,0.5-0.3,1-0.5,1.5c-0.1,0.4-0.3,0.8-0.4,1.2c-0.2,0.5-0.3,1-0.5,1.4c-0.1,0.4-0.3,0.8-0.4,1.2
	c-0.1,0.5-0.3,0.9-0.4,1.4c-0.1,0.4-0.3,0.8-0.4,1.2c-0.1,0.4-0.3,0.8-0.4,1.2c-0.2,0.8-0.5,1.5-0.7,2.3c-0.1,0.3-0.2,0.6-0.3,0.9
	c-0.1,0.5-0.3,1-0.4,1.4c-0.1,0.3-0.2,0.6-0.3,0.9c-0.1,0.4-0.2,0.8-0.4,1.2c-0.1,0.3-0.2,0.6-0.3,0.9c-0.1,0.4-0.2,0.8-0.3,1.2
	c-0.1,0.3-0.2,0.6-0.3,0.9c-0.1,0.4-0.2,0.8-0.3,1.1c-0.1,0.3-0.2,0.5-0.2,0.8c-0.1,0.4-0.2,0.7-0.3,1.1c-0.1,0.3-0.1,0.5-0.2,0.7
	c-0.1,0.4-0.2,0.8-0.3,1.1c-0.1,0.2-0.1,0.4-0.2,0.6c-0.1,0.6-0.3,1.1-0.4,1.6c-3.3,13-6.1,27.2-8.2,42.5h-16.3
	c2.3-14.1,5.3-27.8,9-41.1c3.6-12.9,7.7-25.6,12.4-37.9v-0.1h-27.1h-1.5v-13h1.5h40.5h2.4V20.5z M615,20.5c-0.7,2.2-1.5,4.3-2.1,6.4
	c-0.2,0.6-0.4,1.2-0.6,1.8c-0.1,0.4-0.3,0.8-0.4,1.1c-0.2,0.6-0.4,1.1-0.6,1.7c-0.1,0.4-0.3,0.8-0.4,1.2c-0.2,0.5-0.3,1-0.5,1.6
	c-0.1,0.4-0.3,0.8-0.4,1.2c-0.2,0.5-0.3,1-0.5,1.5c-0.1,0.4-0.3,0.8-0.4,1.2c-0.2,0.5-0.3,1-0.5,1.4c-0.1,0.4-0.3,0.8-0.4,1.2
	c-0.1,0.5-0.3,0.9-0.4,1.4c-0.1,0.4-0.3,0.8-0.4,1.2c-0.1,0.4-0.3,0.8-0.4,1.2c-0.2,0.8-0.5,1.5-0.7,2.3c-0.1,0.3-0.2,0.6-0.3,0.9
	c-0.1,0.5-0.3,1-0.4,1.4c-0.1,0.3-0.2,0.6-0.3,0.9c-0.1,0.4-0.2,0.8-0.4,1.2c-0.1,0.3-0.2,0.6-0.3,0.9c-0.1,0.4-0.2,0.8-0.3,1.2
	c-0.1,0.3-0.2,0.6-0.3,0.9c-0.1,0.4-0.2,0.8-0.3,1.1c-0.1,0.3-0.2,0.5-0.2,0.8c-0.1,0.4-0.2,0.7-0.3,1.1c-0.1,0.3-0.1,0.5-0.2,0.7
	c-0.1,0.4-0.2,0.8-0.3,1.1c-0.1,0.2-0.1,0.4-0.2,0.6c-0.1,0.6-0.3,1.1-0.4,1.6c-3.3,13-6.1,27.2-8.2,42.5h-16.3
	c2.3-14.1,5.3-27.8,9-41.1c3.6-12.9,7.7-25.6,12.4-37.9v-0.1H572h-1.5v-13h2.4h39.6h2.4V20.5z M665,20.5
	c-6.2,18.2-10.5,31.9-12.8,40.9c-3.3,13-6.1,27.2-8.2,42.5h-16.3c2.3-14.1,5.3-27.8,9-41.1c3.6-12.9,7.7-25.6,12.4-37.9v-0.1H622
	h-1.5v-13h2.4h42V20.5z"/>
<polygon class="st1" points="41.3,69.3 30.4,11.5 9.9,11.5 9.9,103.8 23.4,103.8 23.4,34.3 36.2,103.8 45.5,103.8 58.6,34.1 
	58.6,103.8 72.5,103.8 72.5,11.5 52.3,11.5 "/>
<path class="st1" d="M96.9,11.5l-16.1,92.3h14.7l2.7-19.2h15.5l2.7,19.2H131l-16.1-92.3H96.9z M100.2,71.5l5.8-38.1l5.6,38.1H100.2z
	"/>
<path class="st1" d="M159,69.2h9.1v12.7c0,6.5-2.7,9.7-8.2,9.7c-5.2,0-7.8-2.9-7.8-8.8V32.3c0-5.9,2.6-8.8,7.7-8.8
	c4.9,0,7.3,2.8,7.3,8.4v11.8h14.8V32.3c0-6.8-2-12.2-5.9-16.3c-4-4-9.4-6.1-16.2-6.1c-6.9,0-12.5,2.1-16.7,6.2
	c-4.2,4.1-6.3,9.7-6.3,16.6v49.3c0,6.9,1.8,12.5,5.4,16.8c3.6,4.3,8.7,6.5,15.5,6.5c6.6,0,11.9-2.7,15.7-8.1l2.4,6.5h6.9V57.3H159
	V69.2z"/>
<rect x="195.4" y="11.5" class="st1" width="15.2" height="92.3"/>
<path class="st1" d="M244.2,10c-7,0-12.6,2.1-16.9,6.2c-4.3,4.1-6.4,9.7-6.4,16.6v49.9c0,6.9,2.1,12.4,6.4,16.6
	c4.3,4.1,9.9,6.2,16.9,6.2c6.9,0,12.3-2,16.3-6c4-4,5.9-9.5,5.9-16.4V68.4h-14.8v15c0,5.6-2.4,8.4-7.3,8.4c-5.4,0-8.1-2.9-8.1-8.8
	V32.3c0-5.9,2.7-8.8,8.1-8.8c4.9,0,7.3,2.8,7.3,8.4v13.9h14.8V32.3c0-6.9-2-12.4-5.9-16.4C256.6,12,251.1,10,244.2,10z"/>
<path class="st3" d="M387.6,62.7h-5.4v28.5h5.4c4.1,0,6.8-1,8.1-3c1.3-2,2-5.6,2-10.9c0-5.1-0.7-8.8-2-11.1
	C394.4,63.9,391.7,62.7,387.6,62.7z"/>
<path class="st3" d="M394.9,47.6c1.2-2,1.8-5.5,1.8-10.2c0-4.8-0.6-8.1-1.8-10c-1.2-1.9-3.4-2.9-6.6-2.9h-6v26.2h6
	C391.5,50.7,393.7,49.7,394.9,47.6z"/>
<g>
	<path class="st0" d="M275.9,45.2c0,0.1,0,0.1,0,0.2c0-0.1-0.1-0.2-0.1-0.3C275.9,45.1,275.9,45.1,275.9,45.2z"/>
	<path class="st0" d="M275.8,44.5c0,0.1,0,0.1,0,0.2c0,0,0,0,0,0.1c0-0.2-0.1-0.3-0.1-0.5C275.7,44.3,275.7,44.4,275.8,44.5z"/>
	<path class="st1" d="M334.6,64.6C334.6,64.6,334.6,64.6,334.6,64.6c-0.1,0-0.1,0-0.1,0c0,0,0,0,0,0c0,0,0,0,0,0c0,0-0.1,0-0.1,0
		c0,0-0.1,0-0.1,0c0,0,0,0,0,0c0,0,0,0-0.1,0c-0.2,0.1-0.4,0.2-0.6,0.2c0,0,0,0,0,0c0,0,0,0,0,0c-0.1,0-0.1,0-0.2,0.1
		c-0.1,0-0.1,0-0.2,0.1c0,0,0,0-0.1,0c0,0-0.1,0-0.1,0c-0.2,0.1-0.4,0.1-0.6,0.2c-0.1,0-0.1,0-0.2,0.1c-0.1,0-0.2,0-0.2,0.1
		c0,0-0.1,0-0.1,0c-0.1,0-0.1,0-0.2,0.1c-0.2,0.1-0.4,0.1-0.6,0.2c0,0,0,0,0,0c-0.1,0-0.3,0.1-0.4,0.1c-0.1,0-0.2,0.1-0.3,0.1
		c-0.2,0-0.4,0.1-0.6,0.1c-0.1,0-0.3,0.1-0.4,0.1c-0.2,0-0.3,0.1-0.5,0.1c-0.2,0-0.4,0.1-0.6,0.1c-0.1,0-0.2,0-0.3,0.1
		c-0.2,0-0.4,0.1-0.6,0.1c-0.2,0-0.4,0.1-0.7,0.1c-0.1,0-0.1,0-0.2,0c0,0,0,0-0.1,0c-0.2,0-0.4,0.1-0.6,0.1c-0.3,0-0.5,0.1-0.8,0.1
		c-0.1,0-0.1,0-0.2,0c-0.3,0-0.5,0.1-0.8,0.1c-0.1,0-0.3,0-0.4,0c-0.1,0-0.2,0-0.4,0c-0.3,0-0.5,0.1-0.8,0.1c-0.1,0-0.2,0-0.3,0
		c-0.1,0-0.2,0-0.4,0c0,0-0.1,0-0.1,0c-0.3,0-0.6,0-0.9,0.1c-0.1,0-0.1,0-0.2,0c-0.1,0-0.3,0-0.4,0c0,0,0,0,0,0c0,0,0,0,0,0
		c-0.4,0-0.7,0-1.1,0.1c0,0-0.1,0-0.1,0c-0.1,0-0.2,0-0.3,0c0,0-0.1,0-0.1,0c-0.5,0-1,0-1.5,0c-0.1,0-0.2,0-0.3,0
		c-0.1,0-0.2,0-0.3,0c-0.4,0-0.9,0-1.3,0c0,0,0,0-0.1,0c-0.2,0-0.4,0-0.6,0c-0.3,0-0.7,0-1,0c-0.1,0-0.2,0-0.3,0c0,0,0,0-0.1,0
		c-0.5,0-1,0-1.5-0.1c-0.2,0-0.4,0-0.6,0c-0.1,0-0.3,0-0.4,0c-0.2,0-0.4,0-0.7,0c-0.1,0-0.2,0-0.4,0c-0.3,0-0.6-0.1-0.9-0.1
		c0,0-0.1,0-0.1,0c-1.5-0.1-2.9-0.3-4.3-0.5c-1.3-0.2-2.5-0.5-3.6-0.7c-0.1,0-0.3-0.1-0.4-0.1c-0.3-0.1-0.5-0.1-0.7-0.2
		c-0.1,0-0.2-0.1-0.3-0.1c-0.3-0.1-0.6-0.2-0.8-0.3c-0.1,0-0.2-0.1-0.2-0.1c-0.3-0.1-0.5-0.2-0.8-0.3c-0.1,0-0.2-0.1-0.3-0.1
		c-0.2-0.1-0.4-0.1-0.6-0.2c-0.1,0-0.2-0.1-0.3-0.1c-0.1-0.1-0.2-0.1-0.3-0.2c-0.2-0.1-0.3-0.1-0.5-0.2c-0.1-0.1-0.2-0.1-0.3-0.2
		c-0.1-0.1-0.3-0.1-0.4-0.2c-0.1-0.1-0.2-0.1-0.3-0.2c-0.1,0-0.1-0.1-0.2-0.1c0,0.1,0,0.1,0,0.2c0,0.4,0,0.7,0,1.1c0,0,0,0,0,0
		c0,0.5,0,1-0.1,1.5c0,0.2,0,0.3,0,0.5c0,0.6-0.1,1.2-0.1,1.8c0,0.1,0,0.2,0,0.3c0,0.1,0,0.2,0,0.3c0,0.4-0.1,0.8-0.1,1.3
		c0,0.1,0,0.2,0,0.3c0,0.2,0,0.3,0,0.5c0,0.4-0.1,0.8-0.1,1.2c0,0.2,0,0.5-0.1,0.7c0,0.4-0.1,0.8-0.1,1.2c0,0.2,0,0.5-0.1,0.7
		c0,0.4-0.1,0.8-0.1,1.1c0,0.2,0,0.4-0.1,0.7c-0.1,0.5-0.1,0.9-0.2,1.3c0,0.2,0,0.3-0.1,0.5c0,0.4-0.1,0.8-0.1,1.2
		c0,0.2,0,0.3-0.1,0.5c-0.1,0.5-0.1,1-0.2,1.4c0,0.1,0,0.2,0,0.3c-0.1,0.4-0.1,0.7-0.2,1.1c0,0.2,0,0.3-0.1,0.5
		c-0.1,0.4-0.1,0.8-0.2,1.2c0,0.1,0,0.1,0,0.2c-0.1,0.4-0.1,0.9-0.2,1.3c0,0.1,0,0.3-0.1,0.4c-0.1,0.3-0.1,0.6-0.2,0.9
		c0,0.1,0,0.2,0,0.3c-0.1,0.4-0.1,0.8-0.2,1.1c0,0.1,0,0.2-0.1,0.3c-0.7,4-1.4,6.5-1.5,6.9c0,0.2,0.1,0.4,0.1,0.6c0,0,0,0,0,0
		c0,0.2,0.1,0.3,0.2,0.5c0,0,0,0,0,0c0.1,0.3,0.2,0.5,0.4,0.7c0,0,0,0,0,0c0,0.1,0.1,0.1,0.1,0.2c0,0,0,0,0,0
		c0.1,0.2,0.2,0.3,0.3,0.4c0,0,0,0,0,0c0,0,0,0,0,0c0,0,0,0,0,0c0,0,0,0,0,0c0.4,0.5,0.9,0.9,1.4,1.3c0,0,0,0,0,0c0,0,0.1,0,0.1,0.1
		c0,0,0,0,0,0c0.2,0.2,0.5,0.3,0.7,0.5c0,0,0,0,0,0c0.9,0.6,1.9,1.1,2.9,1.5c0,0,0,0,0,0c0.4,0.2,0.8,0.3,1.2,0.5v0
		c0.4,0.1,0.8,0.3,1.2,0.4v0c0.3,0.1,0.7,0.2,1,0.3c0,0,0,0,0,0c1,0.3,2,0.6,3.1,0.8c0,0,0,0,0,0c0.2,0,0.4,0.1,0.6,0.1c0,0,0,0,0,0
		c0.4,0.1,0.8,0.2,1.2,0.2c0,0,0,0,0,0c2.8,0.5,5.5,0.8,8.3,1c0,0,0,0,0,0c0.2,0,0.4,0,0.5,0l0,0c0.5,0,1,0,1.6,0.1c0,0,0,0,0,0
		c0.5,0,1,0,1.4,0c0,0,0,0,0,0c0.5,0,1.1,0,1.6,0v0c0.4,0,0.7,0,1.1,0v0c0.5,0,0.9,0,1.4-0.1v0c0.5,0,1-0.1,1.5-0.1v0
		c0.3,0,0.7-0.1,1-0.1v0c0.7-0.1,1.4-0.1,2.1-0.2c1.6-0.2,3.1-0.4,4.7-0.8v0c1.6-0.3,3.2-0.8,4.7-1.3c0,0,0.1,0,0.1,0v0
		c0,0,0,0,0.1,0c0.5-0.2,1-0.4,1.5-0.6c0.6-0.2,1.2-0.5,1.8-0.8c0.1-0.1,0.2-0.1,0.3-0.2c0.2-0.1,0.4-0.2,0.6-0.3c0,0,0,0,0,0
		c0.1-0.1,0.3-0.2,0.4-0.3c2.1-1.4,3.1-2.8,3.2-4.3c-0.3-1-4.2-15.2-5.3-33c-0.4,0.3-0.9,0.7-1.5,1C335.3,64.3,335,64.5,334.6,64.6z
		"/>
	<path class="st1" d="M334.3,31.4c-19.3-3.9-43.4-1.5-53.8,5.5c-3.4,2.3-5,4.8-4.8,7.2c0,0,0,0.1,0,0.1c0,0,0,0.1,0,0.1
		c0,0.2,0,0.3,0.1,0.5c0,0.1,0,0.1,0,0.2c0,0,0,0,0,0c0,0.1,0.1,0.2,0.1,0.3c0,0,0,0.1,0,0.1c0,0.1,0,0.2,0.1,0.2
		c0,0.1,0.1,0.2,0.1,0.2c0,0.1,0.1,0.2,0.1,0.2c0,0.1,0.1,0.1,0.1,0.2c0,0.1,0.1,0.2,0.1,0.2c0,0.1,0.1,0.1,0.1,0.2
		c0,0.1,0.1,0.2,0.2,0.2c0,0.1,0.1,0.1,0.1,0.2c0.1,0.1,0.1,0.2,0.2,0.2c0,0.1,0.1,0.1,0.1,0.2c0.1,0.1,0.1,0.2,0.2,0.2
		c0.1,0.1,0.1,0.1,0.2,0.2c0.1,0.1,0.1,0.2,0.2,0.3c0.1,0.1,0.1,0.1,0.2,0.2c0.1,0.1,0.2,0.2,0.2,0.2c0.1,0.1,0.1,0.1,0.2,0.2
		c0.1,0.1,0.2,0.2,0.3,0.3c0.1,0.1,0.1,0.1,0.2,0.2c0.1,0.1,0.2,0.2,0.3,0.3c0.1,0,0.1,0.1,0.2,0.1c0.1,0.1,0.2,0.2,0.4,0.3
		c0.1,0,0.1,0.1,0.2,0.1c0.1,0.1,0.1,0.1,0.2,0.2c0.1,0.1,0.3,0.2,0.4,0.3c0.1,0.1,0.2,0.1,0.3,0.2c0.1,0.1,0.2,0.2,0.4,0.2
		c0,0,0.1,0.1,0.1,0.1c0.2,0.1,0.4,0.2,0.6,0.3c0.1,0.1,0.2,0.1,0.3,0.2c0.2,0.1,0.3,0.2,0.5,0.3c0.1,0,0.2,0.1,0.3,0.1
		c0.2,0.1,0.4,0.2,0.6,0.3c0.1,0.1,0.2,0.1,0.3,0.2c0.2,0.1,0.4,0.2,0.6,0.3c0.1,0.1,0.2,0.1,0.3,0.2c0.3,0.1,0.6,0.3,1,0.4
		c0,0,0.1,0,0.1,0c0.4,0.2,0.7,0.3,1.1,0.4c0.1,0,0.2,0.1,0.3,0.1c0.5,0.2,1,0.4,1.6,0.6c0.1,0,0.1,0,0.2,0.1
		c0.6,0.2,1.1,0.4,1.7,0.5c0,0,0,0,0,0c0.4,0.1,0.8,0.2,1.2,0.4c0.1,0,0.3,0.1,0.4,0.1c0.3,0.1,0.6,0.2,0.9,0.2
		c0.2,0,0.3,0.1,0.5,0.1c0.2,0.1,0.5,0.1,0.7,0.2c0.1,0,0.1,0,0.2,0.1c0.1,0,0.3,0.1,0.4,0.1c0.5,0.1,0.9,0.2,1.4,0.3
		c0.7,0.1,1.5,0.3,2.2,0.4c0.2,0,0.4,0.1,0.6,0.1c0.6,0.1,1.1,0.2,1.7,0.3c0.2,0,0.4,0.1,0.6,0.1c0.8,0.1,1.5,0.2,2.3,0.3
		c0.1,0,0.2,0,0.2,0c0.7,0.1,1.4,0.1,2.1,0.2c0.2,0,0.4,0,0.6,0.1c1,0.1,2.1,0.2,3.1,0.2c0.2,0,0.3,0,0.5,0c0.7,0,1.4,0.1,2.1,0.1
		c0.2,0,0.4,0,0.6,0c0.8,0,1.5,0,2.3,0c0.1,0,0.2,0,0.4,0c0.6,0,1.3,0,1.9,0c0.2,0,0.5,0,0.7,0c0.5,0,1,0,1.6,0c0.2,0,0.5,0,0.7,0
		c0.6,0,1.2-0.1,1.7-0.1c0.1,0,0.3,0,0.5,0c0.7,0,1.4-0.1,2.1-0.2c0.2,0,0.4,0,0.5,0c0.5,0,1.1-0.1,1.6-0.2c0.2,0,0.4,0,0.7-0.1
		c0.5-0.1,1-0.1,1.5-0.2c0.2,0,0.4-0.1,0.6-0.1c0.7-0.1,1.4-0.2,2.1-0.3c0.7-0.1,1.4-0.2,2.1-0.4c0.2,0,0.4-0.1,0.6-0.1
		c0.6-0.1,1.1-0.2,1.7-0.4c0.1,0,0.3-0.1,0.4-0.1c0,0,0,0,0.1,0c0.7-0.2,1.4-0.3,2.1-0.5c0.3-0.1,0.6-0.1,0.8-0.2
		c0.2,0,0.4-0.1,0.5-0.1c0.4-0.1,0.7-0.2,1.1-0.3c0.1,0,0.2-0.1,0.3-0.1c0.1,0,0.3-0.1,0.4-0.1c0.4-0.1,0.7-0.2,1-0.3
		c0.2-0.1,0.4-0.1,0.5-0.2c0.3-0.1,0.6-0.2,0.9-0.3c0.2-0.1,0.3-0.1,0.5-0.2c0.3-0.1,0.7-0.3,1-0.4c0.2-0.1,0.3-0.2,0.5-0.2
		c0.3-0.1,0.6-0.3,0.9-0.4c0.2-0.1,0.3-0.2,0.5-0.2c0.3-0.1,0.6-0.3,0.9-0.5c0.1-0.1,0.3-0.1,0.4-0.2c0.4-0.2,0.8-0.5,1.1-0.7
		c2-1.4,3.4-2.8,4.2-4.2c0,0,0-0.1,0.1-0.1c0.1-0.2,0.2-0.5,0.3-0.7c0-0.1,0.1-0.1,0.1-0.2c0.1-0.2,0.1-0.4,0.1-0.6
		c0-0.1,0-0.1,0-0.2c0-0.3,0.1-0.5,0.1-0.8C355.1,39.1,347.6,34.1,334.3,31.4z"/>
	<path class="st3" d="M336.8,57.8C336.8,57.8,336.7,57.8,336.8,57.8c-0.2,0-0.3,0.1-0.4,0.1c-0.5,0.1-1.1,0.2-1.7,0.3
		c-0.1,0-0.2,0-0.3,0.1c-0.1,0-0.2,0-0.2,0c-0.6,0.1-1.3,0.2-2,0.3c0,0-0.1,0-0.1,0c0,0-0.1,0-0.1,0c-0.6,0.1-1.3,0.2-2,0.3
		c-0.1,0-0.1,0-0.2,0c-0.1,0-0.3,0-0.5,0.1c-0.5,0.1-0.9,0.1-1.4,0.2c-0.1,0-0.3,0-0.4,0.1c-0.1,0-0.2,0-0.3,0
		c-0.5,0.1-1,0.1-1.5,0.1c-0.2,0-0.3,0-0.5,0c-0.1,0-0.1,0-0.2,0c-0.7,0.1-1.4,0.1-2.1,0.2c0,0,0,0-0.1,0c-0.1,0-0.2,0-0.4,0
		c-0.6,0-1.2,0.1-1.7,0.1c-0.1,0-0.2,0-0.3,0c-0.2,0-0.3,0-0.5,0c-0.5,0-1,0-1.5,0c-0.2,0-0.3,0-0.5,0c-0.1,0-0.2,0-0.3,0
		c-0.6,0-1.3,0-1.9,0c-0.1,0-0.2,0-0.3,0c0,0,0,0-0.1,0c-0.8,0-1.6,0-2.3,0c-0.1,0-0.1,0-0.2,0c-0.1,0-0.2,0-0.3,0
		c-0.7,0-1.4-0.1-2.1-0.1c-0.1,0-0.3,0-0.4,0c-0.1,0-0.1,0-0.2,0c-1-0.1-2.1-0.1-3.1-0.2c-0.1,0-0.2,0-0.3,0c-0.1,0-0.2,0-0.3,0
		c-0.7-0.1-1.4-0.1-2.1-0.2c-0.1,0-0.1,0-0.2,0c-0.8-0.1-1.5-0.2-2.3-0.3c-0.2,0-0.4-0.1-0.6-0.1c-0.6-0.1-1.1-0.2-1.7-0.3
		c-0.2,0-0.4-0.1-0.7-0.1c-0.7-0.1-1.5-0.3-2.2-0.4c-0.5-0.1-1-0.2-1.4-0.3c-0.1,0-0.2-0.1-0.4-0.1c-0.1,0-0.2,0-0.3-0.1
		c0,0-0.1,0-0.1,0c0,0.2,0,0.4,0,0.6c0,0,0,0.1,0,0.1c0,0.3,0,0.6,0,0.9c0,0.3,0,0.7,0,1c0,0.3,0,0.6,0,0.9c0,0.3,0,0.6,0,1
		c0,0,0,0,0,0c0,0.4,0,0.8-0.1,1.2c0,0,0,0,0.1,0c0,0,0.1,0.1,0.2,0.1c0.1,0,0.1,0.1,0.2,0.1c0.1,0.1,0.2,0.1,0.3,0.2
		c0.1,0.1,0.3,0.1,0.4,0.2c0.1,0.1,0.2,0.1,0.3,0.2c0.1,0.1,0.3,0.1,0.5,0.2c0.1,0.1,0.2,0.1,0.3,0.2c0.1,0,0.2,0.1,0.3,0.1
		c0.2,0.1,0.4,0.1,0.6,0.2c0.1,0,0.2,0.1,0.3,0.1c0.3,0.1,0.5,0.2,0.8,0.3c0.1,0,0.2,0.1,0.2,0.1c0.3,0.1,0.5,0.2,0.8,0.3
		c0.1,0,0.2,0.1,0.3,0.1c0.2,0.1,0.5,0.1,0.7,0.2c0.1,0,0.3,0.1,0.4,0.1c1.1,0.3,2.3,0.5,3.6,0.7c1.4,0.2,2.8,0.4,4.3,0.5
		c0,0,0.1,0,0.1,0c0.3,0,0.6,0.1,0.9,0.1c0.1,0,0.2,0,0.4,0c0.2,0,0.4,0,0.7,0c0.1,0,0.3,0,0.4,0c0.2,0,0.4,0,0.6,0
		c0.5,0,1,0,1.5,0.1c0,0,0,0,0.1,0c0.1,0,0.2,0,0.3,0c0.3,0,0.7,0,1,0c0.2,0,0.4,0,0.6,0c0,0,0,0,0.1,0c0.4,0,0.9,0,1.3,0
		c0.1,0,0.2,0,0.3,0c0.1,0,0.2,0,0.3,0c0.5,0,1,0,1.5,0c0,0,0.1,0,0.1,0c0.1,0,0.2,0,0.3,0c0,0,0.1,0,0.1,0c0.4,0,0.7,0,1.1-0.1
		c0,0,0,0,0,0c0,0,0,0,0,0c0.1,0,0.3,0,0.4,0c0.1,0,0.1,0,0.2,0c0.3,0,0.6,0,0.9-0.1c0,0,0.1,0,0.1,0c0.1,0,0.2,0,0.4,0
		c0.1,0,0.2,0,0.3,0c0.3,0,0.5,0,0.8-0.1c0.1,0,0.2,0,0.4,0c0.1,0,0.3,0,0.4,0c0.3,0,0.5-0.1,0.8-0.1c0.1,0,0.1,0,0.2,0
		c0.3,0,0.5-0.1,0.8-0.1c0.2,0,0.4-0.1,0.6-0.1c0,0,0,0,0.1,0c0.1,0,0.1,0,0.2,0c0.2,0,0.4-0.1,0.7-0.1c0.2,0,0.4-0.1,0.6-0.1
		c0.1,0,0.2,0,0.3-0.1c0.2,0,0.4-0.1,0.6-0.1c0.2,0,0.3-0.1,0.5-0.1c0.1,0,0.3-0.1,0.4-0.1c0.2,0,0.4-0.1,0.6-0.1
		c0.1,0,0.2-0.1,0.3-0.1c0.1,0,0.3-0.1,0.4-0.1c0,0,0,0,0,0c0.2-0.1,0.4-0.1,0.6-0.2c0.1,0,0.1,0,0.2-0.1c0,0,0.1,0,0.1,0
		c0.1,0,0.2,0,0.2-0.1c0.1,0,0.1,0,0.2-0.1c0.2-0.1,0.4-0.1,0.6-0.2c0,0,0.1,0,0.1,0c0,0,0,0,0.1,0c0.1,0,0.1,0,0.2-0.1
		c0.1,0,0.1,0,0.2-0.1c0,0,0,0,0,0c0,0,0,0,0,0c0.2-0.1,0.4-0.2,0.6-0.2c0,0,0,0,0.1,0c0,0,0,0,0,0c0,0,0.1,0,0.1,0c0,0,0,0,0.1,0
		c0,0,0,0,0,0c0,0,0,0,0,0c0,0,0.1,0,0.1,0c0,0,0,0,0,0c0.3-0.1,0.6-0.3,0.9-0.4c0.6-0.3,1.1-0.7,1.5-1c0.1-0.1,0.1-0.1,0.2-0.2
		c-0.2-1.7-0.3-3.5-0.3-5.3C336.9,57.7,336.9,57.8,336.8,57.8C336.8,57.8,336.8,57.8,336.8,57.8z"/>
	<path class="st1" d="M334.7,56.7c-0.2,0-0.4,0.1-0.6,0.1c-0.7,0.1-1.4,0.2-2.1,0.4c-0.7,0.1-1.4,0.2-2.1,0.3c-0.2,0-0.4,0-0.6,0.1
		c-0.5,0.1-1,0.1-1.5,0.2c-0.2,0-0.4,0-0.7,0.1c-0.5,0.1-1.1,0.1-1.6,0.2c-0.2,0-0.4,0-0.5,0c-0.7,0.1-1.4,0.1-2.1,0.2
		c-0.1,0-0.3,0-0.5,0c-0.6,0-1.2,0.1-1.7,0.1c-0.2,0-0.5,0-0.7,0c-0.5,0-1,0-1.6,0c-0.2,0-0.5,0-0.7,0c-0.6,0-1.3,0-1.9,0
		c-0.1,0-0.2,0-0.4,0c-0.8,0-1.5,0-2.3,0c-0.2,0-0.4,0-0.6,0c-0.7,0-1.4-0.1-2.1-0.1c-0.2,0-0.3,0-0.5,0c-1-0.1-2.1-0.1-3.1-0.2
		c-0.2,0-0.4,0-0.6-0.1c-0.7-0.1-1.4-0.1-2.1-0.2c-0.1,0-0.2,0-0.2,0c-0.8-0.1-1.5-0.2-2.3-0.3c-0.2,0-0.4-0.1-0.6-0.1
		c-0.6-0.1-1.1-0.2-1.7-0.3c-0.2,0-0.4-0.1-0.6-0.1c-0.7-0.1-1.5-0.3-2.2-0.4c-0.5-0.1-0.9-0.2-1.4-0.3c-0.1,0-0.3-0.1-0.4-0.1
		c-0.1,0-0.1,0-0.2-0.1c0,0.2,0,0.4,0,0.6c0,0.3,0,0.6,0,0.9c0.1,0,0.2,0,0.3,0.1c0.1,0,0.2,0.1,0.4,0.1c0.5,0.1,0.9,0.2,1.4,0.3
		c0.7,0.1,1.5,0.3,2.2,0.4c0.2,0,0.4,0.1,0.7,0.1c0.6,0.1,1.1,0.2,1.7,0.3c0.2,0,0.4,0.1,0.6,0.1c0.8,0.1,1.5,0.2,2.3,0.3
		c0.1,0,0.1,0,0.2,0c0.7,0.1,1.4,0.2,2.1,0.2c0.1,0,0.2,0,0.3,0c0.1,0,0.2,0,0.3,0c1,0.1,2.1,0.2,3.1,0.2c0.1,0,0.1,0,0.2,0
		c0.1,0,0.3,0,0.4,0c0.7,0,1.4,0.1,2.1,0.1c0.1,0,0.2,0,0.3,0c0.1,0,0.1,0,0.2,0c0.8,0,1.6,0,2.3,0c0,0,0,0,0.1,0c0.1,0,0.2,0,0.3,0
		c0.6,0,1.3,0,1.9,0c0.1,0,0.2,0,0.3,0c0.2,0,0.3,0,0.5,0c0.5,0,1,0,1.5,0c0.2,0,0.3,0,0.5,0c0.1,0,0.2,0,0.3,0
		c0.6,0,1.2-0.1,1.7-0.1c0.1,0,0.2,0,0.4,0c0,0,0,0,0.1,0c0.7,0,1.4-0.1,2.1-0.2c0.1,0,0.1,0,0.2,0c0.2,0,0.3,0,0.5,0
		c0.5,0,1-0.1,1.5-0.1c0.1,0,0.2,0,0.3,0c0.1,0,0.3,0,0.4-0.1c0.5-0.1,1-0.1,1.4-0.2c0.1,0,0.3,0,0.5-0.1c0.1,0,0.1,0,0.2,0
		c0.7-0.1,1.3-0.2,2-0.3c0,0,0.1,0,0.1,0c0,0,0.1,0,0.1,0c0.7-0.1,1.3-0.2,2-0.3c0.1,0,0.2,0,0.2,0c0.1,0,0.2,0,0.3-0.1
		c0.6-0.1,1.1-0.2,1.7-0.3c0.1,0,0.2,0,0.4-0.1c0,0,0,0,0.1,0c0-0.5,0-1,0-1.5c-0.1,0-0.3,0.1-0.4,0.1
		C335.8,56.5,335.3,56.6,334.7,56.7z"/>
	<path class="st4" d="M355.1,44.2C355.1,44.2,355.1,44.2,355.1,44.2c0,0.3,0,0.6-0.1,0.8c0,0.1,0,0.1,0,0.2c0,0.2-0.1,0.4-0.1,0.6
		c0,0.1,0,0.1-0.1,0.2c-0.1,0.2-0.2,0.5-0.3,0.7c0,0,0,0.1-0.1,0.1c-0.7,1.4-2.1,2.9-4.2,4.2c-0.4,0.2-0.7,0.5-1.1,0.7
		c-0.1,0.1-0.3,0.1-0.4,0.2c-0.3,0.2-0.6,0.3-0.9,0.5c-0.2,0.1-0.3,0.2-0.5,0.2c-0.3,0.1-0.6,0.3-0.9,0.4c-0.2,0.1-0.3,0.2-0.5,0.2
		c-0.3,0.1-0.7,0.3-1,0.4c-0.2,0.1-0.3,0.1-0.5,0.2c-0.3,0.1-0.6,0.2-0.9,0.3c-0.2,0.1-0.4,0.1-0.5,0.2c-0.3,0.1-0.7,0.2-1,0.3
		c-0.1,0-0.3,0.1-0.4,0.1c-0.1,0-0.2,0.1-0.3,0.1c-0.4,0.1-0.7,0.2-1.1,0.3c-0.2,0-0.4,0.1-0.5,0.1c-0.3,0.1-0.6,0.2-0.8,0.2
		c-0.7,0.2-1.4,0.4-2.1,0.5c0,0,0,0-0.1,0c-0.1,0-0.3,0.1-0.4,0.1c-0.6,0.1-1.1,0.2-1.7,0.4c-0.2,0-0.4,0.1-0.6,0.1
		c-0.7,0.1-1.4,0.2-2.1,0.4c-0.7,0.1-1.4,0.2-2.1,0.3c-0.2,0-0.4,0-0.6,0.1c-0.5,0.1-1,0.1-1.5,0.2c-0.2,0-0.4,0-0.7,0.1
		c-0.5,0.1-1.1,0.1-1.6,0.2c-0.2,0-0.4,0-0.5,0c-0.7,0.1-1.4,0.1-2.1,0.2c-0.1,0-0.3,0-0.5,0c-0.6,0-1.2,0.1-1.7,0.1
		c-0.2,0-0.5,0-0.7,0c-0.5,0-1,0-1.6,0c-0.2,0-0.5,0-0.7,0c-0.6,0-1.3,0-1.9,0c-0.1,0-0.2,0-0.4,0c-0.8,0-1.5,0-2.3,0
		c-0.2,0-0.4,0-0.6,0c-0.7,0-1.4-0.1-2.1-0.1c-0.2,0-0.3,0-0.5,0c-1-0.1-2.1-0.1-3.1-0.2c-0.2,0-0.4,0-0.6-0.1
		c-0.7-0.1-1.4-0.1-2.1-0.2c-0.1,0-0.2,0-0.2,0c-0.8-0.1-1.5-0.2-2.3-0.3c-0.2,0-0.4-0.1-0.6-0.1c-0.6-0.1-1.1-0.2-1.7-0.3
		c-0.2,0-0.4-0.1-0.6-0.1c-0.7-0.1-1.5-0.3-2.2-0.4c-0.5-0.1-0.9-0.2-1.4-0.3c-0.1,0-0.3-0.1-0.4-0.1c-0.1,0-0.1,0-0.2-0.1
		c-0.2-0.1-0.5-0.1-0.7-0.2c-0.2,0-0.3-0.1-0.5-0.1c-0.3-0.1-0.6-0.2-0.9-0.2c-0.1,0-0.3-0.1-0.4-0.1c-0.4-0.1-0.8-0.2-1.2-0.4
		c0,0,0,0,0,0c-0.6-0.2-1.2-0.4-1.7-0.5c-0.1,0-0.1,0-0.2-0.1c-0.5-0.2-1.1-0.4-1.6-0.6c-0.1,0-0.2-0.1-0.3-0.1
		c-0.4-0.1-0.8-0.3-1.1-0.4c0,0-0.1,0-0.1,0c-0.3-0.1-0.7-0.3-1-0.4c-0.1-0.1-0.2-0.1-0.3-0.2c-0.2-0.1-0.4-0.2-0.6-0.3
		c-0.1-0.1-0.2-0.1-0.3-0.2c-0.2-0.1-0.4-0.2-0.6-0.3c-0.1,0-0.2-0.1-0.3-0.1c-0.2-0.1-0.3-0.2-0.5-0.3c-0.1-0.1-0.2-0.1-0.3-0.2
		c-0.2-0.1-0.4-0.2-0.6-0.3c0,0-0.1-0.1-0.1-0.1c-0.1-0.1-0.2-0.2-0.4-0.2c-0.1-0.1-0.2-0.1-0.3-0.2c-0.1-0.1-0.3-0.2-0.4-0.3
		c-0.1-0.1-0.2-0.1-0.2-0.2c-0.1,0-0.1-0.1-0.2-0.1c-0.1-0.1-0.2-0.2-0.4-0.3c-0.1,0-0.1-0.1-0.2-0.1c-0.1-0.1-0.2-0.2-0.3-0.3
		c-0.1-0.1-0.1-0.1-0.2-0.2c-0.1-0.1-0.2-0.2-0.3-0.3c-0.1-0.1-0.1-0.1-0.2-0.2c-0.1-0.1-0.2-0.2-0.2-0.2c-0.1-0.1-0.1-0.1-0.2-0.2
		c-0.1-0.1-0.2-0.2-0.2-0.3c-0.1-0.1-0.1-0.1-0.2-0.2c-0.1-0.1-0.1-0.2-0.2-0.2c-0.1-0.1-0.1-0.1-0.1-0.2c-0.1-0.1-0.1-0.2-0.2-0.2
		c0-0.1-0.1-0.1-0.1-0.2c-0.1-0.1-0.1-0.2-0.2-0.2c0-0.1-0.1-0.1-0.1-0.2c0-0.1-0.1-0.2-0.1-0.2c0-0.1-0.1-0.1-0.1-0.2
		c0-0.1-0.1-0.2-0.1-0.2c0-0.1-0.1-0.2-0.1-0.2c0-0.1-0.1-0.2-0.1-0.2c0,0,0-0.1,0-0.1c0-0.1,0-0.1,0-0.2c0-0.1,0-0.1,0-0.2
		c0,0,0,0,0,0c0-0.1,0-0.1,0-0.2c0,0,0,0,0-0.1c0-0.1,0-0.1,0-0.2c0-0.1,0-0.1,0-0.2c0,0,0-0.1,0-0.1c0,0,0-0.1,0-0.1
		c0-0.1,0-0.2,0-0.3c0,0.5,0,1,0,1.5c0,0.1,0,0.2,0,0.2c0,0,0,0.1,0,0.1c0,0.1,0,0.2,0,0.2c0,0.1,0,0.2,0,0.2c0,0.1,0,0.2,0.1,0.3
		c0,0,0,0.1,0,0.1v0c0,0,0,0.1,0,0.1c0,0.1,0,0.2,0.1,0.2c0,0.1,0.1,0.2,0.1,0.2c0,0.1,0.1,0.1,0.1,0.2c0,0,0,0.1,0.1,0.1
		c0,0,0,0.1,0.1,0.1c0,0.1,0.1,0.1,0.1,0.2c0,0.1,0.1,0.2,0.1,0.2c0,0.1,0.1,0.1,0.1,0.2c0,0,0,0.1,0.1,0.1c0,0,0.1,0.1,0.1,0.1
		c0,0.1,0.1,0.1,0.1,0.2c0.1,0.1,0.1,0.2,0.2,0.2c0,0.1,0.1,0.1,0.1,0.2c0,0,0,0.1,0.1,0.1c0,0.1,0.1,0.1,0.1,0.2
		c0.1,0.1,0.1,0.1,0.2,0.2c0.1,0.1,0.1,0.2,0.2,0.2c0.1,0.1,0.1,0.1,0.2,0.2c0,0,0,0,0,0.1c0.1,0.1,0.1,0.1,0.2,0.2
		c0.1,0.1,0.1,0.1,0.2,0.2c0.1,0.1,0.2,0.2,0.3,0.3c0.1,0.1,0.1,0.1,0.2,0.2c0,0,0,0,0,0c0.1,0.1,0.2,0.1,0.3,0.2
		c0.1,0.1,0.1,0.1,0.2,0.2c0.1,0.1,0.3,0.2,0.5,0.3c0,0,0.1,0.1,0.1,0.1c0,0,0,0,0,0c0.1,0.1,0.2,0.1,0.3,0.2
		c0.1,0.1,0.2,0.1,0.3,0.2c0.1,0.1,0.2,0.1,0.2,0.2c0.1,0.1,0.3,0.2,0.4,0.3c0,0,0,0,0,0c0,0,0.1,0.1,0.1,0.1
		c0.2,0.1,0.4,0.2,0.6,0.3c0.1,0.1,0.2,0.1,0.3,0.2c0.2,0.1,0.3,0.2,0.5,0.3c0,0,0,0,0.1,0c0.1,0,0.1,0.1,0.2,0.1
		c0.2,0.1,0.4,0.2,0.6,0.3c0.1,0.1,0.2,0.1,0.3,0.2c0.2,0.1,0.4,0.2,0.6,0.3c0.1,0,0.1,0.1,0.2,0.1c0,0,0.1,0,0.1,0.1
		c0.3,0.1,0.7,0.3,1,0.4c0,0,0.1,0,0.1,0c0.4,0.2,0.8,0.3,1.1,0.4c0,0,0.1,0,0.1,0c0,0,0.1,0,0.1,0c0.5,0.2,1,0.4,1.6,0.6
		c0,0,0.1,0,0.1,0c0.6,0.2,1.2,0.4,1.8,0.6c0,0,0,0,0,0l0,0c0.4,0.1,0.8,0.2,1.3,0.4c0.1,0,0.2,0.1,0.3,0.1c0.3,0.1,0.7,0.2,1,0.3
		c0.1,0,0.3,0.1,0.4,0.1c0.2,0.1,0.4,0.1,0.6,0.2c0,0,0.1,0,0.1,0c0.1,0,0.2,0,0.3,0.1c0.1,0,0.2,0.1,0.4,0.1
		c0.5,0.1,0.9,0.2,1.4,0.3c0.7,0.1,1.5,0.3,2.2,0.4c0.2,0,0.4,0.1,0.7,0.1c0.6,0.1,1.1,0.2,1.7,0.3c0.2,0,0.4,0.1,0.6,0.1
		c0.8,0.1,1.5,0.2,2.3,0.3c0.1,0,0.1,0,0.2,0c0.7,0.1,1.4,0.2,2.1,0.2c0.1,0,0.2,0,0.3,0c0.1,0,0.2,0,0.3,0c1,0.1,2.1,0.2,3.1,0.2
		c0.1,0,0.1,0,0.2,0c0.1,0,0.3,0,0.4,0c0.7,0,1.4,0.1,2.1,0.1c0.1,0,0.2,0,0.3,0c0.1,0,0.1,0,0.2,0c0.8,0,1.6,0,2.3,0c0,0,0,0,0.1,0
		c0.1,0,0.2,0,0.3,0c0.6,0,1.3,0,1.9,0c0.1,0,0.2,0,0.3,0c0.2,0,0.3,0,0.5,0c0.5,0,1,0,1.5,0c0.2,0,0.3,0,0.5,0c0.1,0,0.2,0,0.3,0
		c0.6,0,1.2-0.1,1.7-0.1c0.1,0,0.2,0,0.4,0c0,0,0,0,0.1,0c0.7,0,1.4-0.1,2.1-0.2c0.1,0,0.1,0,0.2,0c0.2,0,0.3,0,0.5,0
		c0.5,0,1-0.1,1.5-0.1c0.1,0,0.2,0,0.3,0c0.1,0,0.3,0,0.4-0.1c0.5-0.1,1-0.1,1.4-0.2c0.1,0,0.3,0,0.5-0.1c0.1,0,0.1,0,0.2,0
		c0.7-0.1,1.3-0.2,2-0.3c0,0,0.1,0,0.1,0c0,0,0.1,0,0.1,0c0.7-0.1,1.3-0.2,2-0.3c0.1,0,0.2,0,0.2,0c0.1,0,0.2,0,0.3-0.1
		c0.6-0.1,1.1-0.2,1.7-0.3c0.1,0,0.2,0,0.4-0.1c0,0,0,0,0.1,0c0,0,0,0,0.1,0c0,0,0,0,0,0c0.7-0.2,1.4-0.3,2.1-0.5c0.1,0,0.1,0,0.2,0
		c0.2-0.1,0.5-0.1,0.7-0.2c0.2,0,0.3-0.1,0.5-0.1c0.4-0.1,0.8-0.2,1.1-0.3c0.1,0,0.2,0,0.2-0.1c0,0,0,0,0,0c0.2,0,0.3-0.1,0.5-0.2
		c0.3-0.1,0.7-0.2,1-0.3c0.2-0.1,0.4-0.1,0.6-0.2c0.3-0.1,0.6-0.2,0.8-0.3c0,0,0.1,0,0.1,0c0.1,0,0.2-0.1,0.3-0.1
		c0.3-0.1,0.7-0.3,1-0.4c0.2-0.1,0.3-0.2,0.5-0.2c0.3-0.1,0.6-0.3,0.9-0.4c0.2-0.1,0.3-0.2,0.5-0.2c0.3-0.1,0.6-0.3,0.9-0.5
		c0.1-0.1,0.3-0.1,0.4-0.2c0.4-0.2,0.8-0.5,1.1-0.7c1-0.7,1.9-1.4,2.6-2.1c1.5-1.6,2.3-3.2,2.2-4.8L355.1,44.2z"/>
</g>
<g>
	<polygon class="st5" points="318.7,11.5 319.1,11.5 318.6,11.3 	"/>
	<path class="st6" d="M317.4,11.5l1.3,0l-0.1-0.2l-0.3-0.1c-0.4-0.2-0.9-0.2-1.3-0.2L317.4,11.5z"/>
	<path class="st7" d="M316.1,11.5l1.3,0l0,0L317,11c-0.4,0-0.8,0.1-1.1,0.3L316.1,11.5z"/>
	<path class="st8" d="M315.9,11.3c-0.1,0.1-0.3,0.1-0.4,0.2l0.6,0L315.9,11.3z"/>
	<path class="st9" d="M340.3,19.4C340.3,19.3,340.3,19.3,340.3,19.4l-1.8-0.7l-1.8-0.7l-1.8-0.7l-1.8-0.7l-1.8-0.7l-1.8-0.7
		l-1.8-0.7l-1.8-0.7l-1.3-0.5c0.4,0.4,0.7,1,0.8,1.6c0,0.2,0.1,0.3,0.1,0.5l0,1.4l0,1.8l0,1.8l0,1.8l0,1.8l0,1.8l0,1.8l0,1.7
		c0.1,0.1,0.1,0.3,0.2,0.5c0.1,0.1,0.1,0.3,0.2,0.4c0.3,0.7,0.6,1.5,0.9,2.3c0.1,0.3,0.2,0.6,0.3,0.9c0.1,0.4,0.2,0.7,0.3,1.1
		c0.1,0.5,0.2,1.1,0.3,1.5c0,0.4,0.1,0.8,0,1.1c0,0.2,0,0.4-0.1,0.6c0,0.2-0.1,0.5-0.2,0.7c-0.1,0.2-0.1,0.4-0.2,0.6
		c-0.2,0.4-0.3,0.7-0.6,1c0,0,0,0,0,0c-0.2,0.3-0.5,0.5-0.8,0.7c-0.1,0.1-0.2,0.1-0.3,0.2l0,1.3l0,1.8l0,1.8l0,1l0,1l0,1l0,1l0,0.3
		c0.1,0,0.1,0,0.2,0c0.2,0,0.4-0.1,0.6-0.1c0.1,0,0.2,0,0.3-0.1c-0.2-0.1-0.3-0.3-0.6-0.3c0,0,0,0,0,0c0,0,0,0,0,0l0,0l0.1-0.1
		l0.7,0.3l0.3,0.1c0.1,0,0.3-0.1,0.4-0.1c0.2-0.1,0.4-0.1,0.6-0.2c0.4-0.1,0.7-0.2,1.1-0.4c0.4-0.1,0.7-0.3,1-0.4
		c0.3-0.1,0.7-0.3,1-0.5c0.3-0.2,0.6-0.3,0.9-0.5c0.1,0,0.2-0.1,0.2-0.1c0.2-0.1,0.4-0.3,0.6-0.5c0.1-0.1,0.2-0.2,0.2-0.2l0.3-0.8
		L334,45l0.4-1.2l0.4-1.2l0.4-1.2l0.4-1.2l0.4-1.2l0.4-1.2l0.4-1.2l0.4-1.2l0.4-1.2l0.4-1.2l0.4-1.2l0.4-1.2l0.4-1.2l0.4-1.2
		l0.4-1.2l0.4-1.2l0.4-1.2l0.4-1.2l0.1-0.2c0.2-0.4,0.2-0.9,0.2-1.3C342.2,20.9,341.4,19.8,340.3,19.4z"/>
	<g>
		<path d="M327.7,36.4c-0.1-0.5-0.1-1-0.3-1.5c-0.1-0.3-0.2-0.7-0.3-1.1c-0.1-0.3-0.2-0.6-0.3-0.9c-0.3-0.8-0.6-1.6-0.9-2.3
			c-0.1-0.2-0.1-0.3-0.2-0.4c-0.1-0.2-0.1-0.3-0.2-0.5l0,0.2l0,1.8l0,1.8l0,1.8l0,1.8l0,1.8l0,1.8l0,0.6c0.1-0.1,0.2-0.1,0.3-0.2
			c0.3-0.2,0.6-0.4,0.8-0.7c0,0,0,0,0,0c0.2-0.3,0.4-0.6,0.6-1c0.1-0.2,0.2-0.4,0.2-0.6c0.1-0.2,0.1-0.5,0.2-0.7
			c0-0.2,0.1-0.4,0.1-0.6C327.7,37.2,327.7,36.8,327.7,36.4z"/>
		<path d="M326.2,49.6l-0.1,0.1l0,0c0,0,0,0,0,0c0,0,0,0,0,0c0.2,0.1,0.4,0.2,0.6,0.3c0.1,0,0.2-0.1,0.3-0.1c0.1,0,0.1,0,0.2,0
			l-0.3-0.1L326.2,49.6z"/>
	</g>
	<path class="st4" d="M324.5,13.5c0,0-0.1-0.1-0.1-0.1C324.4,13.4,324.4,13.4,324.5,13.5L324.5,13.5z"/>
	<path class="st4" d="M325.2,14.9l0.1,0.1c-0.1-0.6-0.4-1.2-0.8-1.6l0,0C324.8,13.9,325.1,14.4,325.2,14.9z"/>
	<path class="st4" d="M325.3,16.8l0.1,0.1l0-1.4c0-0.2,0-0.3-0.1-0.5l-0.1-0.1c0,0.2,0.1,0.4,0.1,0.5L325.3,16.8z"/>
	<polygon class="st4" points="325.3,18.7 325.4,18.8 325.4,17 325.3,16.8 	"/>
	<polygon class="st4" points="325.3,20.5 325.4,20.6 325.4,18.8 325.3,18.7 	"/>
	<polygon class="st4" points="325.3,22.3 325.4,22.4 325.4,20.6 325.3,20.5 	"/>
	<polygon class="st4" points="325.3,24.1 325.4,24.3 325.4,22.4 325.3,22.3 	"/>
	<polygon class="st4" points="325.4,26 325.4,26.1 325.4,24.3 325.3,24.1 	"/>
	<polygon class="st4" points="325.4,27.8 325.5,27.9 325.4,26.1 325.4,26 	"/>
	<path class="st4" d="M325.4,29.4c0,0.1,0.1,0.1,0.1,0.2l0-1.7l-0.1-0.1L325.4,29.4z"/>
	<path class="st4" d="M325.5,42.4l0.1,0.1l0-1.3c0,0-0.1,0-0.1,0L325.5,42.4z"/>
	<polygon class="st4" points="325.5,44.2 325.6,44.4 325.6,42.5 325.5,42.4 	"/>
	<polygon class="st4" points="325.5,46.1 325.6,46.2 325.6,44.4 325.5,44.2 	"/>
	<polygon class="st4" points="325.6,47 325.6,47.2 325.6,46.2 325.5,46.1 	"/>
	<polygon class="st4" points="325.6,48 325.6,48.1 325.6,47.2 325.6,47 	"/>
	<polygon class="st4" points="325.6,49 325.7,49.1 325.6,48.1 325.6,48 	"/>
	<polygon class="st4" points="325.6,49.9 325.7,50.1 325.7,49.1 325.6,49 	"/>
	<path class="st4" d="M325.6,49.9l0,0.4c0,0,0.1,0,0.1,0l0-0.3L325.6,49.9z"/>
	<path class="st4" d="M325.4,29.6l0.1,0.1L325.4,29.6c0.1-0.1,0-0.2,0-0.2L325.4,29.6z"/>
	<polygon class="st4" points="325.5,31.6 325.5,29.7 325.4,29.6 325.4,31.5 	"/>
	<polygon class="st4" points="325.4,31.5 325.4,33.3 325.5,33.4 325.5,31.6 	"/>
	<polygon class="st4" points="325.4,35.1 325.5,35.2 325.5,33.4 325.4,33.3 	"/>
	<polygon class="st4" points="325.5,36.9 325.5,37.1 325.5,35.2 325.4,35.1 	"/>
	<polygon class="st4" points="325.5,38.8 325.6,38.9 325.5,37.1 325.5,36.9 	"/>
	<polygon class="st4" points="325.5,40.6 325.6,40.7 325.6,38.9 325.5,38.8 	"/>
	<path class="st4" d="M325.5,40.6l0,0.7c0,0,0.1,0,0.1,0l0-0.6L325.5,40.6z"/>
	<path class="st4" d="M324.4,13.3C324.3,13.3,324.3,13.3,324.4,13.3C324.3,13.3,324.3,13.3,324.4,13.3
		C324.3,13.3,324.4,13.3,324.4,13.3z"/>
	<path class="st4" d="M324.5,13.5L324.5,13.5c0,0,0-0.1-0.1-0.1c0,0,0,0,0,0C324.4,13.3,324.4,13.4,324.5,13.5z"/>
	<path class="st4" d="M325.1,14.8l0.1,0.1c-0.1-0.6-0.4-1.1-0.7-1.5l0,0C324.8,13.8,325,14.3,325.1,14.8z"/>
	<path class="st4" d="M325.2,15.4l0,1.3l0.1,0.1L325.2,15.4c0.1-0.1,0.1-0.3,0-0.5l-0.1-0.1C325.1,15,325.2,15.2,325.2,15.4z"/>
	<polygon class="st4" points="325.3,18.7 325.3,16.8 325.2,16.7 325.2,18.5 	"/>
	<polygon class="st4" points="325.2,20.4 325.3,20.5 325.3,18.7 325.2,18.5 	"/>
	<polygon class="st4" points="325.2,22.2 325.3,22.3 325.3,20.5 325.2,20.4 	"/>
	<polygon class="st4" points="325.3,24 325.3,24.1 325.3,22.3 325.2,22.2 	"/>
	<polygon class="st4" points="325.3,25.9 325.4,26 325.3,24.1 325.3,24 	"/>
	<polygon class="st4" points="325.3,27.7 325.4,27.8 325.4,26 325.3,25.9 	"/>
	<path class="st4" d="M325.3,29.2c0,0.1,0.1,0.1,0.1,0.2l0-1.6l-0.1-0.1L325.3,29.2z"/>
	<path class="st4" d="M325.4,42.3l0.1,0.1l0-1.1c0,0-0.1,0-0.1,0L325.4,42.3z"/>
	<polygon class="st4" points="325.4,44.1 325.5,44.2 325.5,42.4 325.4,42.3 	"/>
	<polygon class="st4" points="325.5,46 325.5,46.1 325.5,44.2 325.4,44.1 	"/>
	<polygon class="st4" points="325.5,46.9 325.6,47 325.5,46.1 325.5,46 	"/>
	<polygon class="st4" points="325.5,47.9 325.6,48 325.6,47 325.5,46.9 	"/>
	<polygon class="st4" points="325.5,48.9 325.6,49 325.6,48 325.5,47.9 	"/>
	<polygon class="st4" points="325.5,48.9 325.5,49.8 325.6,49.9 325.6,49 	"/>
	<path class="st4" d="M325.5,49.8l0,0.5c0,0,0.1,0,0.1,0l0-0.4L325.5,49.8z"/>
	<path class="st4" d="M325.3,29.5l0.1,0.1l0-0.2c0-0.1-0.1-0.1-0.1-0.2L325.3,29.5z"/>
	<polygon class="st4" points="325.3,31.3 325.4,31.5 325.4,29.6 325.3,29.5 	"/>
	<polygon class="st4" points="325.3,33.2 325.4,33.3 325.4,31.5 325.3,31.3 	"/>
	<polygon class="st4" points="325.4,35 325.4,35.1 325.4,33.3 325.3,33.2 	"/>
	<polygon class="st4" points="325.4,36.8 325.5,36.9 325.4,35.1 325.4,35 	"/>
	<polygon class="st4" points="325.4,38.6 325.5,38.8 325.5,36.9 325.4,36.8 	"/>
	<polygon class="st4" points="325.4,38.6 325.4,40.5 325.5,40.6 325.5,38.8 	"/>
	<path class="st4" d="M325.4,41.4C325.4,41.3,325.5,41.3,325.4,41.4l0.1-0.8l-0.1-0.1L325.4,41.4z"/>
	<path class="st4" d="M324.3,13.3C324.3,13.2,324.2,13.2,324.3,13.3C324.2,13.2,324.2,13.2,324.3,13.3
		C324.3,13.2,324.3,13.2,324.3,13.3z"/>
	<path class="st4" d="M324.3,13.3C324.3,13.3,324.3,13.3,324.3,13.3C324.3,13.3,324.3,13.3,324.3,13.3
		C324.3,13.2,324.3,13.2,324.3,13.3C324.2,13.2,324.3,13.2,324.3,13.3z"/>
	<path class="st4" d="M324.5,13.5c0-0.1-0.1-0.1-0.1-0.2c0,0,0,0,0,0C324.3,13.3,324.4,13.4,324.5,13.5L324.5,13.5z"/>
	<path class="st4" d="M325,14.7l0.1,0.1c-0.1-0.5-0.3-1-0.7-1.4l0,0C324.7,13.8,324.9,14.2,325,14.7z"/>
	<path class="st4" d="M325.1,16.6l0.1,0.1l0-1.3c0-0.2,0-0.4-0.1-0.6l-0.1-0.1c0,0.2,0.1,0.4,0.1,0.6L325.1,16.6z"/>
	<polygon class="st4" points="325.1,18.4 325.2,18.5 325.2,16.7 325.1,16.6 	"/>
	<polygon class="st4" points="325.2,20.4 325.2,18.5 325.1,18.4 325.1,20.2 	"/>
	<polygon class="st4" points="325.1,22.1 325.2,22.2 325.2,20.4 325.1,20.2 	"/>
	<polygon class="st4" points="325.2,23.9 325.3,24 325.2,22.2 325.1,22.1 	"/>
	<polygon class="st4" points="325.2,25.7 325.3,25.9 325.3,24 325.2,23.9 	"/>
	<polygon class="st4" points="325.2,27.6 325.3,27.7 325.3,25.9 325.2,25.7 	"/>
	<path class="st4" d="M325.2,29c0,0.1,0.1,0.1,0.1,0.2l0-1.5l-0.1-0.1L325.2,29z"/>
	<path class="st4" d="M325.3,42.2l0.1,0.1l0-0.9c0,0-0.1,0-0.1,0L325.3,42.2z"/>
	<polygon class="st4" points="325.4,44 325.4,44.1 325.4,42.3 325.3,42.2 	"/>
	<polygon class="st4" points="325.4,45.8 325.5,46 325.4,44.1 325.4,44 	"/>
	<polygon class="st4" points="325.4,46.8 325.5,46.9 325.5,46 325.4,45.8 	"/>
	<polygon class="st4" points="325.4,47.8 325.5,47.9 325.5,46.9 325.4,46.8 	"/>
	<polygon class="st4" points="325.4,47.8 325.4,48.7 325.5,48.9 325.5,47.9 	"/>
	<polygon class="st4" points="325.4,48.7 325.4,49.7 325.5,49.8 325.5,48.9 	"/>
	<path class="st4" d="M325.4,49.7l0,0.7c0,0,0.1,0,0.1,0l0-0.5L325.4,49.7z"/>
	<path class="st4" d="M325.2,29.4l0.1,0.1l0-0.3c0-0.1-0.1-0.1-0.1-0.2L325.2,29.4z"/>
	<polygon class="st4" points="325.2,31.2 325.3,31.3 325.3,29.5 325.2,29.4 	"/>
	<polygon class="st4" points="325.3,33 325.3,33.2 325.3,31.3 325.2,31.2 	"/>
	<polygon class="st4" points="325.3,34.9 325.4,35 325.3,33.2 325.3,33 	"/>
	<polygon class="st4" points="325.3,36.7 325.4,36.8 325.4,35 325.3,34.9 	"/>
	<polygon class="st4" points="325.3,36.7 325.3,38.5 325.4,38.6 325.4,36.8 	"/>
	<polygon class="st4" points="325.3,40.4 325.4,40.5 325.4,38.6 325.3,38.5 	"/>
	<path class="st4" d="M325.3,41.4C325.4,41.4,325.4,41.4,325.3,41.4l0.1-0.9l-0.1-0.1L325.3,41.4z"/>
	<path class="st4" d="M324.2,13.2C324.2,13.1,324.1,13.1,324.2,13.2C324.1,13.1,324.1,13.1,324.2,13.2
		C324.2,13.1,324.2,13.2,324.2,13.2z"/>
	<path class="st4" d="M324.2,13.2C324.2,13.2,324.2,13.2,324.2,13.2C324.2,13.2,324.2,13.2,324.2,13.2
		C324.2,13.2,324.2,13.1,324.2,13.2C324.2,13.1,324.2,13.2,324.2,13.2z"/>
	<path class="st4" d="M324.3,13.3C324.3,13.2,324.2,13.2,324.3,13.3C324.2,13.2,324.2,13.2,324.3,13.3
		C324.2,13.2,324.2,13.2,324.3,13.3C324.2,13.2,324.3,13.2,324.3,13.3z"/>
	<path class="st4" d="M324.4,13.4L324.4,13.4c0-0.1-0.1-0.1-0.1-0.2c0,0,0,0,0,0C324.3,13.3,324.4,13.4,324.4,13.4z"/>
	<path class="st4" d="M324.9,14.5l0.1,0.1c-0.1-0.5-0.3-0.9-0.6-1.2l0,0C324.6,13.8,324.8,14.1,324.9,14.5z"/>
	<path class="st4" d="M325,15.2l0,1.3l0.1,0.1L325,15.2c0.1-0.1,0.1-0.3,0-0.5l-0.1-0.1C325,14.8,325,15,325,15.2z"/>
	<polygon class="st4" points="325.1,18.4 325.1,16.6 325,16.5 325,18.3 	"/>
	<polygon class="st4" points="325,20.1 325.1,20.2 325.1,18.4 325,18.3 	"/>
	<polygon class="st4" points="325.1,22.1 325.1,20.2 325,20.1 325.1,22 	"/>
	<polygon class="st4" points="325.1,23.8 325.2,23.9 325.1,22.1 325.1,22 	"/>
	<polygon class="st4" points="325.1,25.6 325.2,25.7 325.2,23.9 325.1,23.8 	"/>
	<polygon class="st4" points="325.1,27.4 325.2,27.6 325.2,25.7 325.1,25.6 	"/>
	<path class="st4" d="M325.1,28.9c0,0.1,0.1,0.1,0.1,0.2l0-1.5l-0.1-0.1L325.1,28.9z"/>
	<path class="st4" d="M325.2,41.4l0,0.6l0.1,0.1L325.2,41.4C325.3,41.4,325.3,41.4,325.2,41.4C325.3,41.4,325.3,41.4,325.2,41.4z"/>
	<polygon class="st4" points="325.3,43.9 325.4,44 325.3,42.2 325.2,42.1 	"/>
	<polygon class="st4" points="325.3,45.7 325.4,45.8 325.4,44 325.3,43.9 	"/>
	<polygon class="st4" points="325.3,46.7 325.4,46.8 325.4,45.8 325.3,45.7 	"/>
	<polygon class="st4" points="325.3,46.7 325.3,47.6 325.4,47.8 325.4,46.8 	"/>
	<polygon class="st4" points="325.3,47.6 325.3,48.6 325.4,48.7 325.4,47.8 	"/>
	<polygon class="st4" points="325.3,48.6 325.3,49.6 325.4,49.7 325.4,48.7 	"/>
	<path class="st4" d="M325.3,49.6l0,0.8c0,0,0.1,0,0.1,0l0-0.7L325.3,49.6z"/>
	<path class="st4" d="M325.1,29.3l0.1,0.1l0-0.3c0-0.1-0.1-0.1-0.1-0.2L325.1,29.3z"/>
	<polygon class="st4" points="325.1,31.1 325.2,31.2 325.2,29.4 325.1,29.3 	"/>
	<polygon class="st4" points="325.2,32.9 325.3,33 325.2,31.2 325.1,31.1 	"/>
	<polygon class="st4" points="325.2,34.7 325.3,34.9 325.3,33 325.2,32.9 	"/>
	<polygon class="st4" points="325.2,34.7 325.2,36.6 325.3,36.7 325.3,34.9 	"/>
	<polygon class="st4" points="325.2,38.4 325.3,38.5 325.3,36.7 325.2,36.6 	"/>
	<polygon class="st4" points="325.2,40.2 325.3,40.4 325.3,38.5 325.2,38.4 	"/>
	<path class="st4" d="M325.2,41.4C325.3,41.4,325.3,41.4,325.2,41.4C325.3,41.4,325.3,41.4,325.2,41.4l0.1-1.1l-0.1-0.1L325.2,41.4z
		"/>
	<path class="st4" d="M324.1,13.1C324.1,13.1,324.1,13,324.1,13.1C324,13,324,13,324.1,13.1C324.1,13.1,324.1,13.1,324.1,13.1z"/>
	<path class="st4" d="M324.1,13.1C324.1,13.1,324.1,13.1,324.1,13.1C324.1,13.1,324.1,13.1,324.1,13.1
		C324.1,13.1,324.1,13.1,324.1,13.1C324.1,13.1,324.1,13.1,324.1,13.1z"/>
	<path class="st4" d="M324.2,13.2C324.2,13.2,324.2,13.1,324.2,13.2C324.1,13.1,324.1,13.1,324.2,13.2
		C324.1,13.1,324.1,13.1,324.2,13.2C324.2,13.2,324.2,13.2,324.2,13.2z"/>
	<path class="st4" d="M324.2,13.2C324.2,13.2,324.2,13.2,324.2,13.2C324.2,13.2,324.2,13.2,324.2,13.2
		C324.2,13.2,324.2,13.2,324.2,13.2C324.2,13.2,324.2,13.2,324.2,13.2z"/>
	<path class="st4" d="M324.4,13.4c-0.1-0.1-0.1-0.1-0.2-0.2c0,0,0,0,0,0C324.2,13.3,324.3,13.3,324.4,13.4L324.4,13.4z"/>
	<path class="st4" d="M324.8,14.4l0.1,0.1c-0.1-0.4-0.3-0.8-0.5-1.1l0,0C324.6,13.7,324.7,14,324.8,14.4z"/>
	<path class="st4" d="M324.9,16.4l0.1,0.1l0-1.3c0-0.2,0-0.5-0.1-0.7l-0.1-0.1c0.1,0.2,0.1,0.5,0.1,0.7L324.9,16.4z"/>
	<polygon class="st4" points="324.9,18.2 325,18.3 325,16.5 324.9,16.4 	"/>
	<polygon class="st4" points="325,20.1 325,18.3 324.9,18.2 325,20 	"/>
	<polygon class="st4" points="325,21.8 325.1,22 325,20.1 325,20 	"/>
	<polygon class="st4" points="325.1,23.8 325.1,22 325,21.8 325,23.7 	"/>
	<polygon class="st4" points="325,25.5 325.1,25.6 325.1,23.8 325,23.7 	"/>
	<polygon class="st4" points="325,27.3 325.1,27.4 325.1,25.6 325,25.5 	"/>
	<path class="st4" d="M325,28.7c0,0,0.1,0.1,0.1,0.2l0-1.4l-0.1-0.1L325,28.7z"/>
	<path class="st4" d="M325.2,41.9l0.1,0.1l0-0.6c0,0-0.1,0-0.1,0L325.2,41.9z"/>
	<polygon class="st4" points="325.2,43.8 325.3,43.9 325.2,42.1 325.2,41.9 	"/>
	<polygon class="st4" points="325.2,45.6 325.3,45.7 325.3,43.9 325.2,43.8 	"/>
	<polygon class="st4" points="325.2,45.6 325.2,46.6 325.3,46.7 325.3,45.7 	"/>
	<polygon class="st4" points="325.2,46.6 325.2,47.5 325.3,47.6 325.3,46.7 	"/>
	<polygon class="st4" points="325.2,47.5 325.2,48.5 325.3,48.6 325.3,47.6 	"/>
	<polygon class="st4" points="325.2,48.5 325.2,49.5 325.3,49.6 325.3,48.6 	"/>
	<path class="st4" d="M325.2,49.5l0,1c0,0,0.1,0,0.1,0l0-0.8L325.2,49.5z"/>
	<path class="st4" d="M325,29.1l0.1,0.1l0-0.4c0-0.1-0.1-0.1-0.1-0.2L325,29.1z"/>
	<polygon class="st4" points="325.1,31 325.1,31.1 325.1,29.3 325,29.1 	"/>
	<polygon class="st4" points="325.1,32.8 325.2,32.9 325.1,31.1 325.1,31 	"/>
	<polygon class="st4" points="325.1,32.8 325.1,34.6 325.2,34.7 325.2,32.9 	"/>
	<polygon class="st4" points="325.1,36.5 325.2,36.6 325.2,34.7 325.1,34.6 	"/>
	<polygon class="st4" points="325.1,38.3 325.2,38.4 325.2,36.6 325.1,36.5 	"/>
	<polygon class="st4" points="325.1,40.1 325.2,40.2 325.2,38.4 325.1,38.3 	"/>
	<path class="st4" d="M325.2,41.5C325.2,41.5,325.2,41.5,325.2,41.5l0.1-1.2l-0.1-0.1L325.2,41.5z"/>
	<path class="st4" d="M324,13C324,13,324,12.9,324,13C323.9,12.9,324,12.9,324,13C324,13,324,13,324,13z"/>
	<path class="st4" d="M324,13C324,13,324,13,324,13C324,13,324,13,324,13C324,13,324,13,324,13C324,13,324,13,324,13z"/>
	<path class="st4" d="M324.1,13.1C324.1,13.1,324.1,13.1,324.1,13.1C324,13,324,13,324.1,13.1C324,13,324,13,324.1,13.1
		C324.1,13.1,324.1,13.1,324.1,13.1z"/>
	<path class="st4" d="M324.1,13.1C324.1,13.1,324.1,13.1,324.1,13.1C324.1,13.1,324.1,13.1,324.1,13.1
		C324.1,13.1,324.1,13.1,324.1,13.1C324.1,13.1,324.1,13.1,324.1,13.1z"/>
	<path class="st4" d="M324.2,13.2C324.2,13.2,324.2,13.2,324.2,13.2C324.1,13.1,324.1,13.1,324.2,13.2
		C324.1,13.1,324.1,13.1,324.2,13.2C324.1,13.2,324.2,13.2,324.2,13.2z"/>
	<path class="st4" d="M324.3,13.4L324.3,13.4c0-0.1-0.1-0.1-0.1-0.2c0,0,0,0,0,0C324.2,13.2,324.3,13.3,324.3,13.4z"/>
	<path class="st4" d="M324.7,14.2l0.1,0.1c-0.1-0.3-0.2-0.7-0.4-1l-0.1,0C324.5,13.7,324.6,13.9,324.7,14.2z"/>
	<path class="st4" d="M324.8,15l0,1.2l0.1,0.1L324.8,15c0.1-0.2,0-0.4,0-0.7l-0.1-0.1C324.8,14.5,324.8,14.8,324.8,15z"/>
	<polygon class="st4" points="324.9,18.2 324.9,16.4 324.8,16.2 324.9,18.1 	"/>
	<polygon class="st4" points="324.9,19.9 325,20 324.9,18.2 324.9,18.1 	"/>
	<polygon class="st4" points="325,21.8 325,20 324.9,19.9 324.9,21.7 	"/>
	<polygon class="st4" points="324.9,23.5 325,23.7 325,21.8 324.9,21.7 	"/>
	<polygon class="st4" points="325,25.5 325,23.7 324.9,23.5 324.9,25.4 	"/>
	<polygon class="st4" points="324.9,27.2 325,27.3 325,25.5 324.9,25.4 	"/>
	<path class="st4" d="M325,28.6c0,0,0.1,0.1,0.1,0.1l0-1.4l-0.1-0.1L325,28.6z"/>
	<path class="st4" d="M325.1,41.8l0.1,0.1l0-0.5c0,0-0.1,0-0.1,0L325.1,41.8z"/>
	<polygon class="st4" points="325.1,43.6 325.2,43.8 325.2,41.9 325.1,41.8 	"/>
	<polygon class="st4" points="325.1,43.6 325.1,45.5 325.2,45.6 325.2,43.8 	"/>
	<polygon class="st4" points="325.1,45.5 325.1,46.4 325.2,46.6 325.2,45.6 	"/>
	<polygon class="st4" points="325.1,46.4 325.1,47.4 325.2,47.5 325.2,46.6 	"/>
	<polygon class="st4" points="325.1,47.4 325.1,48.4 325.2,48.5 325.2,47.5 	"/>
	<polygon class="st4" points="325.1,48.4 325.1,49.3 325.2,49.5 325.2,48.5 	"/>
	<polygon class="st4" points="325.1,49.3 325.2,50.3 325.2,50.4 325.2,50.4 325.2,49.5 	"/>
	<path class="st4" d="M325.2,50.4C325.2,50.4,325.2,50.4,325.2,50.4l0-0.1L325.2,50.4z"/>
	<path class="st4" d="M325,29l0.1,0.1l0-0.4c0-0.1-0.1-0.1-0.1-0.1L325,29z"/>
	<polygon class="st4" points="325,30.9 325.1,31 325,29.1 325,29 	"/>
	<polygon class="st4" points="325,30.9 325,32.7 325.1,32.8 325.1,31 	"/>
	<polygon class="st4" points="325,34.5 325.1,34.6 325.1,32.8 325,32.7 	"/>
	<polygon class="st4" points="325,36.3 325.1,36.5 325.1,34.6 325,34.5 	"/>
	<polygon class="st4" points="325,38.2 325.1,38.3 325.1,36.5 325,36.3 	"/>
	<polygon class="st4" points="325.1,40 325.1,40.1 325.1,38.3 325,38.2 	"/>
	<path class="st4" d="M325.1,41.5C325.1,41.5,325.1,41.5,325.1,41.5l0.1-1.4l-0.1-0.1L325.1,41.5z"/>
	<path class="st4" d="M323.9,12.9C323.9,12.9,323.9,12.9,323.9,12.9C323.9,12.8,323.9,12.9,323.9,12.9
		C323.9,12.9,323.9,12.9,323.9,12.9z"/>
	<path class="st4" d="M323.9,12.9C323.9,12.9,324,12.9,323.9,12.9C324,12.9,323.9,12.9,323.9,12.9C323.9,12.9,323.9,12.9,323.9,12.9
		C323.9,12.9,323.9,12.9,323.9,12.9z"/>
	<path class="st4" d="M324,13C324,13,324,13,324,13C324,12.9,323.9,12.9,324,13C323.9,12.9,324,13,324,13C324,13,324,13,324,13z"/>
	<path class="st4" d="M324,13C324,13,324,13,324,13C324,13,324,13,324,13C324,13,324,13,324,13C324,13,324,13,324,13z"/>
	<path class="st4" d="M324.1,13.1C324.1,13.1,324.1,13.1,324.1,13.1C324,13,324,13,324.1,13.1C324,13,324,13,324.1,13.1
		C324.1,13.1,324.1,13.1,324.1,13.1z"/>
	<path class="st4" d="M324.1,13.1C324.1,13.1,324.1,13.1,324.1,13.1C324.1,13.1,324.1,13.1,324.1,13.1
		C324.1,13.1,324.1,13.1,324.1,13.1C324.1,13.1,324.1,13.1,324.1,13.1z"/>
	<path class="st4" d="M324.3,13.4c-0.1-0.1-0.1-0.2-0.2-0.3c0,0,0,0,0,0C324.2,13.2,324.2,13.3,324.3,13.4L324.3,13.4z"/>
	<path class="st4" d="M324.6,14.1l0.1,0.1c-0.1-0.3-0.2-0.6-0.4-0.8l-0.1,0C324.4,13.6,324.5,13.8,324.6,14.1z"/>
	<path class="st4" d="M324.7,15l0,1.2l0.1,0.1L324.7,15c0.1-0.2,0-0.5,0-0.7l-0.1-0.1C324.7,14.4,324.7,14.7,324.7,15z"/>
	<polygon class="st4" points="324.8,17.9 324.9,18.1 324.8,16.2 324.7,16.1 	"/>
	<polygon class="st4" points="324.9,19.9 324.9,18.1 324.8,17.9 324.8,19.8 	"/>
	<polygon class="st4" points="324.8,21.6 324.9,21.7 324.9,19.9 324.8,19.8 	"/>
	<polygon class="st4" points="324.9,23.5 324.9,21.7 324.8,21.6 324.8,23.4 	"/>
	<polygon class="st4" points="324.8,25.3 324.9,25.4 324.9,23.5 324.8,23.4 	"/>
	<polygon class="st4" points="324.9,27.2 324.9,25.4 324.8,25.3 324.9,27.1 	"/>
	<path class="st4" d="M324.9,28.4c0,0,0.1,0.1,0.1,0.1l0-1.4l-0.1-0.1L324.9,28.4z"/>
	<path class="st4" d="M325,41.7l0.1,0.1l0-0.3c0,0-0.1,0-0.1,0L325,41.7z"/>
	<polygon class="st4" points="325,41.7 325,43.5 325.1,43.6 325.1,41.8 	"/>
	<polygon class="st4" points="325,43.5 325,45.4 325.1,45.5 325.1,43.6 	"/>
	<polygon class="st4" points="325,45.4 325,46.3 325.1,46.4 325.1,45.5 	"/>
	<polygon class="st4" points="325,46.3 325,47.3 325.1,47.4 325.1,46.4 	"/>
	<polygon class="st4" points="325,47.3 325,48.3 325.1,48.4 325.1,47.4 	"/>
	<polygon class="st4" points="325,48.3 325.1,49.2 325.1,49.3 325.1,48.4 	"/>
	<polygon class="st4" points="325.1,50.2 325.2,50.3 325.1,49.3 325.1,49.2 	"/>
	<path class="st4" d="M325.1,50.2l0,0.3c0,0,0.1,0,0.1,0l0-0.1L325.1,50.2z"/>
	<path class="st4" d="M324.9,28.9L325,29l0-0.4c0-0.1-0.1-0.1-0.1-0.1L324.9,28.9z"/>
	<polygon class="st4" points="324.9,28.9 324.9,30.7 325,30.9 325,29 	"/>
	<polygon class="st4" points="324.9,32.6 325,32.7 325,30.9 324.9,30.7 	"/>
	<polygon class="st4" points="324.9,34.4 325,34.5 325,32.7 324.9,32.6 	"/>
	<polygon class="st4" points="324.9,36.2 325,36.3 325,34.5 324.9,34.4 	"/>
	<polygon class="st4" points="325,38 325,38.2 325,36.3 324.9,36.2 	"/>
	<polygon class="st4" points="325,39.9 325.1,40 325,38.2 325,38 	"/>
	<path class="st4" d="M325,41.6C325,41.5,325,41.5,325,41.6l0.1-1.6l-0.1-0.1L325,41.6z"/>
	<path class="st4" d="M323.8,12.8C323.8,12.8,323.8,12.8,323.8,12.8C323.8,12.8,323.8,12.8,323.8,12.8
		C323.8,12.8,323.8,12.8,323.8,12.8z"/>
	<path class="st4" d="M323.8,12.8C323.9,12.8,323.9,12.9,323.8,12.8C323.9,12.9,323.9,12.8,323.8,12.8
		C323.8,12.8,323.8,12.8,323.8,12.8C323.8,12.8,323.8,12.8,323.8,12.8z"/>
	<path class="st4" d="M323.9,12.9C323.9,12.9,323.9,12.9,323.9,12.9C323.9,12.9,323.9,12.8,323.9,12.9
		C323.9,12.9,323.9,12.9,323.9,12.9C323.9,12.9,323.9,12.9,323.9,12.9z"/>
	<path class="st4" d="M323.9,12.9C323.9,12.9,323.9,13,323.9,12.9C324,13,323.9,12.9,323.9,12.9C323.9,12.9,323.9,12.9,323.9,12.9
		C323.9,12.9,323.9,12.9,323.9,12.9z"/>
	<path class="st4" d="M324,13C324,13,324,13,324,13C323.9,13,323.9,12.9,324,13C323.9,12.9,323.9,13,324,13C324,13,324,13,324,13z"
		/>
	<path class="st4" d="M324,13C324,13,324,13,324,13C324,13,324,13,324,13C324,13,324,13,324,13C324,13,324,13,324,13z"/>
	<path class="st4" d="M324.1,13.1C324.1,13.1,324.1,13.1,324.1,13.1C324,13,324,13,324.1,13.1C324,13,324,13.1,324.1,13.1
		C324.1,13.1,324.1,13.1,324.1,13.1z"/>
	<path class="st4" d="M324.2,13.4L324.2,13.4c0-0.1-0.1-0.2-0.1-0.3c0,0,0,0,0,0C324.1,13.2,324.2,13.3,324.2,13.4z"/>
	<path class="st4" d="M324.6,14.1c-0.1-0.3-0.2-0.5-0.3-0.7l-0.1,0c0.1,0.2,0.2,0.4,0.3,0.6L324.6,14.1z"/>
	<path class="st4" d="M324.7,14.9l0,1.1l0.1,0.1L324.7,14.9c0.1-0.2,0-0.5-0.1-0.8l-0.1-0.1C324.6,14.2,324.6,14.5,324.7,14.9z"/>
	<polygon class="st4" points="324.7,17.8 324.8,17.9 324.7,16.1 324.7,16 	"/>
	<polygon class="st4" points="324.7,19.6 324.8,19.8 324.8,17.9 324.7,17.8 	"/>
	<polygon class="st4" points="324.8,21.6 324.8,19.8 324.7,19.6 324.7,21.5 	"/>
	<polygon class="st4" points="324.7,23.3 324.8,23.4 324.8,21.6 324.7,21.5 	"/>
	<polygon class="st4" points="324.8,25.3 324.8,23.4 324.7,23.3 324.7,25.1 	"/>
	<polygon class="st4" points="324.8,27 324.9,27.1 324.8,25.3 324.7,25.1 	"/>
	<path class="st4" d="M324.9,28.4l0-1.4l-0.1-0.1l0,1.4C324.8,28.4,324.8,28.4,324.9,28.4z"/>
	<path class="st4" d="M324.9,41.6l0.1,0.1L324.9,41.6C325,41.6,324.9,41.6,324.9,41.6z"/>
	<polygon class="st4" points="324.9,41.6 324.9,41.6 324.9,43.4 325,43.5 325,41.7 	"/>
	<polygon class="st4" points="324.9,43.4 324.9,45.2 325,45.4 325,43.5 	"/>
	<polygon class="st4" points="324.9,45.2 324.9,46.2 325,46.3 325,45.4 	"/>
	<polygon class="st4" points="324.9,46.2 324.9,47.2 325,47.3 325,46.3 	"/>
	<polygon class="st4" points="324.9,47.2 325,48.1 325,48.3 325,47.3 	"/>
	<polygon class="st4" points="325,49.1 325.1,49.2 325,48.3 325,48.1 	"/>
	<polygon class="st4" points="325,49.1 325,50.1 325.1,50.2 325.1,49.2 	"/>
	<path class="st4" d="M325,50.1l0,0.4c0,0,0.1,0,0.1,0l0-0.3L325,50.1z"/>
	<path class="st4" d="M324.8,28.3l0,0.5l0.1,0.1l0-0.5C324.8,28.4,324.8,28.4,324.8,28.3z"/>
	<polygon class="st4" points="324.8,30.6 324.9,30.7 324.9,28.9 324.8,28.8 	"/>
	<polygon class="st4" points="324.8,32.4 324.9,32.6 324.9,30.7 324.8,30.6 	"/>
	<polygon class="st4" points="324.8,34.3 324.9,34.4 324.9,32.6 324.8,32.4 	"/>
	<polygon class="st4" points="324.8,36.1 324.9,36.2 324.9,34.4 324.8,34.3 	"/>
	<polygon class="st4" points="324.9,37.9 325,38 324.9,36.2 324.8,36.1 	"/>
	<polygon class="st4" points="324.9,39.8 325,39.9 325,38 324.9,37.9 	"/>
	<path class="st4" d="M325,39.9l-0.1-0.1l0,1.8l0,0c0,0,0.1,0,0.1,0L325,39.9z"/>
	<polygon class="st4" points="324.9,41.6 324.9,41.6 324.9,41.6 	"/>
	<path class="st4" d="M323.8,12.7C323.7,12.7,323.7,12.7,323.8,12.7C323.7,12.7,323.7,12.7,323.8,12.7
		C323.7,12.7,323.7,12.7,323.8,12.7z"/>
	<path class="st4" d="M323.8,12.8C323.8,12.8,323.8,12.8,323.8,12.8C323.8,12.8,323.8,12.8,323.8,12.8
		C323.7,12.7,323.7,12.7,323.8,12.8C323.7,12.7,323.7,12.7,323.8,12.8z"/>
	<path class="st4" d="M323.8,12.8C323.8,12.8,323.8,12.8,323.8,12.8C323.8,12.8,323.8,12.8,323.8,12.8
		C323.8,12.8,323.8,12.8,323.8,12.8C323.8,12.8,323.8,12.8,323.8,12.8z"/>
	<path class="st4" d="M323.8,12.8C323.8,12.9,323.9,12.9,323.8,12.8C323.9,12.9,323.9,12.9,323.8,12.8
		C323.8,12.8,323.8,12.8,323.8,12.8C323.8,12.8,323.8,12.8,323.8,12.8z"/>
	<path class="st4" d="M323.9,12.9C323.9,12.9,323.9,12.9,323.9,12.9C323.9,12.9,323.8,12.9,323.9,12.9
		C323.8,12.9,323.9,12.9,323.9,12.9C323.9,12.9,323.9,12.9,323.9,12.9z"/>
	<path class="st4" d="M323.9,12.9C323.9,12.9,323.9,13,323.9,12.9C323.9,13,323.9,12.9,323.9,12.9C323.9,12.9,323.9,12.9,323.9,12.9
		C323.9,12.9,323.9,12.9,323.9,12.9z"/>
	<path class="st4" d="M324,13C324,13,324,13,324,13C323.9,13,323.9,12.9,324,13C323.9,13,323.9,13,324,13C324,13,324,13,324,13z"/>
	<path class="st4" d="M324,13C324,13,324,13.1,324,13C324,13.1,324,13,324,13C324,13,324,13,324,13C324,13,324,13,324,13z"/>
	<path class="st4" d="M324.2,13.4L324.2,13.4c0-0.1-0.1-0.2-0.1-0.3c0,0,0,0,0,0C324.1,13.1,324.1,13.2,324.2,13.4z"/>
	<path class="st4" d="M324.4,13.8l0.1,0.1c-0.1-0.2-0.2-0.4-0.3-0.6l-0.1,0C324.3,13.5,324.3,13.6,324.4,13.8z"/>
	<path class="st4" d="M324.6,15.9l0.1,0.1l0-1.1c0-0.3-0.1-0.6-0.2-0.9l-0.1-0.1c0.1,0.3,0.2,0.6,0.2,1L324.6,15.9z"/>
	<polygon class="st4" points="324.6,17.7 324.7,17.8 324.7,16 324.6,15.9 	"/>
	<polygon class="st4" points="324.6,19.5 324.7,19.6 324.7,17.8 324.6,17.7 	"/>
	<polygon class="st4" points="324.6,19.5 324.6,21.4 324.7,21.5 324.7,19.6 	"/>
	<polygon class="st4" points="324.6,23.2 324.7,23.3 324.7,21.5 324.6,21.4 	"/>
	<polygon class="st4" points="324.6,23.2 324.7,25 324.7,25.1 324.7,23.3 	"/>
	<polygon class="st4" points="324.7,26.8 324.8,27 324.7,25.1 324.7,25 	"/>
	<path class="st4" d="M324.7,28.2C324.7,28.2,324.7,28.2,324.7,28.2c0.1,0.1,0.1,0.1,0.1,0.1l0-1.4l-0.1-0.1L324.7,28.2z"/>
	<path class="st4" d="M324.8,41.6l0,1.7l0.1,0.1L324.8,41.6C324.9,41.6,324.8,41.6,324.8,41.6z"/>
	<polygon class="st4" points="324.8,43.3 324.8,45.1 324.9,45.2 324.9,43.4 	"/>
	<polygon class="st4" points="324.8,45.1 324.9,46.1 324.9,46.2 324.9,45.2 	"/>
	<polygon class="st4" points="324.9,46.1 324.9,47 324.9,47.2 324.9,46.2 	"/>
	<polygon class="st4" points="324.9,48 325,48.1 324.9,47.2 324.9,47 	"/>
	<polygon class="st4" points="324.9,48 324.9,49 325,49.1 325,48.1 	"/>
	<polygon class="st4" points="324.9,49 324.9,49.9 325,50.1 325,49.1 	"/>
	<path class="st4" d="M324.9,49.9l0,0.5c0,0,0.1,0,0.1,0l0-0.4L324.9,49.9z"/>
	<path class="st4" d="M324.7,28.2l0,0.5l0.1,0.1l0-0.5C324.8,28.3,324.7,28.3,324.7,28.2C324.7,28.2,324.7,28.2,324.7,28.2z"/>
	<polygon class="st4" points="324.7,30.5 324.8,30.6 324.8,28.8 324.7,28.7 	"/>
	<polygon class="st4" points="324.7,32.3 324.8,32.4 324.8,30.6 324.7,30.5 	"/>
	<polygon class="st4" points="324.7,34.2 324.8,34.3 324.8,32.4 324.7,32.3 	"/>
	<polygon class="st4" points="324.8,36 324.8,36.1 324.8,34.3 324.7,34.2 	"/>
	<polygon class="st4" points="324.8,37.8 324.9,37.9 324.8,36.1 324.8,36 	"/>
	<polygon class="st4" points="324.8,37.8 324.8,39.6 324.9,39.8 324.9,37.9 	"/>
	<polygon class="st4" points="324.8,41.5 324.9,41.6 324.9,39.8 324.8,39.6 	"/>
	<path class="st4" d="M324.8,41.5l0,0.1c0,0,0.1,0,0.1,0l0,0L324.8,41.5z"/>
	<path class="st4" d="M323.7,12.7c0,0-0.1-0.1-0.1-0.1C323.6,12.6,323.6,12.6,323.7,12.7C323.6,12.6,323.6,12.6,323.7,12.7z"/>
	<path class="st4" d="M323.6,12.6C323.7,12.7,323.7,12.7,323.6,12.6C323.7,12.7,323.7,12.7,323.6,12.6
		C323.6,12.6,323.6,12.6,323.6,12.6C323.6,12.6,323.6,12.6,323.6,12.6z"/>
	<path class="st4" d="M323.8,12.8C323.7,12.7,323.7,12.7,323.8,12.8c-0.1-0.1-0.1-0.1-0.1-0.1C323.7,12.7,323.7,12.7,323.8,12.8
		C323.7,12.7,323.7,12.7,323.8,12.8z"/>
	<path class="st4" d="M323.7,12.7C323.7,12.8,323.8,12.8,323.7,12.7C323.8,12.8,323.8,12.8,323.7,12.7
		C323.7,12.7,323.7,12.7,323.7,12.7C323.7,12.7,323.7,12.7,323.7,12.7z"/>
	<path class="st4" d="M323.8,12.8C323.8,12.8,323.8,12.8,323.8,12.8c-0.1-0.1-0.1-0.1-0.1-0.1C323.7,12.8,323.7,12.8,323.8,12.8
		C323.8,12.8,323.8,12.8,323.8,12.8z"/>
	<path class="st4" d="M323.8,12.8c0,0,0.1,0.1,0.1,0.1C323.9,12.9,323.8,12.9,323.8,12.8C323.8,12.8,323.8,12.8,323.8,12.8
		C323.8,12.8,323.8,12.8,323.8,12.8z"/>
	<path class="st4" d="M323.9,12.9C323.9,12.9,323.9,12.9,323.9,12.9c-0.1-0.1-0.1-0.1-0.1-0.1c0,0,0,0,0,0
		C323.8,12.9,323.9,12.9,323.9,12.9z"/>
	<path class="st4" d="M323.8,12.9c0,0,0.1,0.1,0.1,0.1C323.9,13,323.9,13,323.8,12.9C323.9,12.9,323.8,12.9,323.8,12.9
		C323.8,12.9,323.8,12.9,323.8,12.9z"/>
	<path class="st4" d="M324,13C324,13,324,13,324,13c-0.1-0.1-0.1-0.1-0.2-0.1c0,0,0,0,0,0.1C323.9,13,323.9,13,324,13z"/>
	<path class="st4" d="M324,13.2C324,13.2,324,13.3,324,13.2l0.2,0.1c-0.1-0.1-0.1-0.2-0.2-0.3c0,0-0.1-0.1-0.1-0.1
		C323.9,13,324,13.1,324,13.2z"/>
	<path class="st4" d="M324.4,13.8c-0.1-0.2-0.1-0.3-0.2-0.5l-0.1-0.1c0,0,0,0.1,0,0.1L324.4,13.8z"/>
	<path class="st4" d="M324.3,14.5l0,0.2l0,0.8l0.3,0.4l0-1.1c0-0.3-0.1-0.7-0.2-1l-0.3-0.4C324.2,13.7,324.3,14.1,324.3,14.5z"/>
	<polygon class="st4" points="324.3,17.2 324.3,17.3 324.6,17.7 324.6,15.9 324.3,15.5 324.3,16 	"/>
	<polygon class="st4" points="324.3,18.5 324.3,19.2 324.6,19.5 324.6,17.7 324.3,17.3 	"/>
	<polygon class="st4" points="324.4,21 324.6,21.4 324.6,19.5 324.3,19.2 324.3,19.8 	"/>
	<polygon class="st4" points="324.4,21 324.4,21.1 324.4,22.3 324.4,22.8 324.6,23.2 324.6,21.4 	"/>
	<polygon class="st4" points="324.4,24.7 324.7,25 324.6,23.2 324.4,22.8 324.4,23.6 	"/>
	<polygon class="st4" points="324.4,24.9 324.4,26.2 324.4,26.5 324.7,26.8 324.7,25 324.4,24.7 	"/>
	<path class="st4" d="M324.4,28C324.4,28,324.4,28,324.4,28C324.5,28,324.5,28,324.4,28c0.1,0.1,0.1,0.1,0.2,0.1
		c0,0,0.1,0.1,0.1,0.1l0-1.3l-0.3-0.4l0,1L324.4,28z"/>
	<path class="st4" d="M324.6,41.7C324.6,41.7,324.6,41.7,324.6,41.7l0,1.1l0,0.2l0.3,0.4l0-1.7C324.7,41.6,324.7,41.6,324.6,41.7z"
		/>
	<polygon class="st4" points="324.6,42.9 324.6,44 324.6,44.8 324.8,45.1 324.8,43.3 	"/>
	<polygon class="st4" points="324.6,44.8 324.6,45.3 324.6,45.7 324.9,46.1 324.8,45.1 	"/>
	<polygon class="st4" points="324.6,45.7 324.6,46.6 324.6,46.7 324.9,47 324.9,46.1 	"/>
	<polygon class="st4" points="324.6,46.7 324.6,47.3 324.6,47.7 324.9,48 324.9,47 	"/>
	<polygon class="st4" points="324.6,47.7 324.6,47.9 324.6,48.6 324.6,48.6 324.9,49 324.9,48 	"/>
	<polygon class="st4" points="324.6,48.6 324.6,49.3 324.6,49.6 324.9,49.9 324.9,49 	"/>
	<path class="st4" d="M324.6,49.6l0,0.4l0,0.6c0.1,0,0.2,0,0.3-0.1l0-0.5L324.6,49.6z"/>
	<path class="st4" d="M324.6,28.1C324.6,28.1,324.5,28.1,324.6,28.1c-0.1,0-0.1,0-0.2-0.1c0,0,0,0,0,0l0,0.3l0.3,0.4l0-0.5
		C324.7,28.1,324.6,28.1,324.6,28.1z"/>
	<polygon class="st4" points="324.4,28.3 324.4,28.7 324.4,30 324.4,30.1 324.7,30.5 324.7,28.7 	"/>
	<polygon class="st4" points="324.4,30.1 324.5,31.3 324.5,32 324.7,32.3 324.7,30.5 	"/>
	<polygon class="st4" points="324.5,32 324.5,32.5 324.5,33.8 324.7,34.2 324.7,32.3 	"/>
	<polygon class="st4" points="324.5,33.8 324.5,33.8 324.5,35.1 324.5,35.6 324.8,36 324.7,34.2 	"/>
	<polygon class="st4" points="324.5,35.6 324.5,36.4 324.5,37.4 324.8,37.8 324.8,36 	"/>
	<polygon class="st4" points="324.5,37.4 324.5,37.7 324.5,38.9 324.5,39.3 324.8,39.6 324.8,37.8 	"/>
	<polygon class="st4" points="324.5,39.3 324.5,40.2 324.5,41.1 324.8,41.5 324.8,39.6 	"/>
	<path class="st4" d="M324.5,41.1l0,0.4l0,0.2c0,0,0,0,0,0c0.1,0,0.1,0,0.2-0.1l0-0.1L324.5,41.1z"/>
	<polygon class="st4" points="324.6,48.6 324.6,48.6 324.6,48.6 	"/>
	<path class="st9" d="M324.6,50l0-0.4l0-0.3l0-0.7l0,0l0,0l0-0.7l0-0.3l0-0.4l0-0.6l0-0.1l0-0.9l0-0.4l0-0.6l0-0.7l0-1.1l0-0.2
		l0-1.1l0-0.2l0-0.4l0-0.9l0-0.9l0-0.3l0-1.3l0-0.2l0-1.1l0-0.8l0-0.5l0-1.3l0,0l0-1.2l0-0.6l0-0.7l0-1.1l0-0.1l0-1.3l0-0.4l0-0.3
		l0-0.6l0-1l0-0.3l0-1.3l0-0.2l0-1l0-0.8l0-0.5l0-1.3l0-0.1l0-1.2l0-0.6l0-0.7l0-1.2l0-0.1l0-1.3l0-0.4l0-0.8l0-0.2
		c0-0.4-0.1-0.8-0.2-1.1c0,0,0-0.1,0-0.1c0,0,0-0.1,0-0.1c0-0.1-0.1-0.2-0.2-0.3c0,0,0,0,0-0.1c0,0,0,0,0-0.1c0,0,0,0,0,0
		c0,0,0,0,0,0c0,0,0,0,0,0c0,0,0,0,0,0c0,0,0,0,0,0c0,0,0,0,0,0c0,0,0,0,0,0c-0.6-0.7-1.4-1.1-2.3-1.1c0,0-0.1,0-0.1,0l-1.9,0
		l-0.2,0l-0.4,0l-1.3,0l0,0l-1.3,0l-0.6,0l-0.1,0l-1.9,0l-1.9,0l-1.9,0l-1.9,0l-1.9,0l-1.9,0l-1.9,0l-1.9,0l-1.9,0l-0.3,0
		c-0.4,0-0.9,0.1-1.3,0.3c-0.4,0.2-0.7,0.4-0.9,0.7c-0.2,0.3-0.4,0.6-0.6,0.9c-0.2,0.3-0.2,0.7-0.3,1.1c0,0.1,0,0.1,0,0.2l0,1l0,1.3
		l0,1.3l0,1.3l0,1.3l0,1.3l0,1.3l0,1.3l0,1.3l0,1.3l0,0.7l0,0.7l0,0.7l0,0.7l0,0.7l0,0.7l0,0.7l0,0.7l0,0.7l0,0.7l0,0.7l0,0.7l0,0.7
		l0,0.7l0,0.7l0,0.7l0,0.7l0,0.7l0,0.7l0,0.7l0,0.7l0,0.2l0.3,0.4l0.1,0.1l0.1,0.1l0.1,0.1l0,0.1l0.1,0.1l0.1,0.1l0.1,0.1l0.1,0.1
		l0.1,0.1l0.1,0.1l0.1,0.2l0,0.1c0,0.2-0.1,0.4,0,0.6c0,0.3,0.1,0.5,0.1,0.8c0.1,0.3,0.3,0.7,0.5,1c0.8,1.1,2.2,2,4.2,2.9
		c0.1,0,0.1,0.1,0.2,0.1c0.2,0.1,0.3,0.1,0.5,0.2c0.2,0.1,0.3,0.1,0.5,0.2c0.3,0.1,0.6,0.2,0.9,0.3c0.2,0.1,0.4,0.1,0.7,0.2
		c0.1,0,0.1,0,0.2,0.1c0.3,0.1,0.6,0.2,0.9,0.2c0.2,0,0.4,0.1,0.6,0.1c0.1,0,0.1,0,0.2,0c0.2,0,0.4,0.1,0.6,0.1c0.1,0,0.2,0,0.3,0
		c0.2,0,0.3,0.1,0.5,0.1c0.1,0,0.2,0,0.3,0.1c0.3,0,0.5,0.1,0.8,0.1c0.1,0,0.2,0,0.3,0c0.2,0,0.3,0,0.5,0.1c0.3,0,0.5,0.1,0.8,0.1
		c0,0,0,0,0,0c0.2,0,0.5,0.1,0.7,0.1c0.2,0,0.3,0,0.5,0c0.1,0,0.2,0,0.2,0c0.2,0,0.5,0,0.7,0.1c0.1,0,0.1,0,0.2,0c0.2,0,0.4,0,0.5,0
		c0.2,0,0.4,0,0.6,0c0,0,0.1,0,0.1,0c0.2,0,0.5,0,0.7,0c0.1,0,0.2,0,0.3,0c0.1,0,0.3,0,0.4,0c0.2,0,0.4,0,0.6,0c0,0,0.1,0,0.1,0
		c0.2,0,0.5,0,0.7,0c0.1,0,0.2,0,0.2,0c0.1,0,0.3,0,0.4,0c0.2,0,0.4,0,0.6,0c0,0,0.1,0,0.1,0c0.2,0,0.4,0,0.7,0c0.1,0,0.1,0,0.2,0
		c0.2,0,0.3,0,0.5,0c0.1,0,0.3,0,0.4,0c0,0,0,0,0,0c0-0.1,0-0.1-0.1-0.2c0-0.1-0.1-0.1-0.1-0.1c0,0-0.1,0-0.1,0
		c-0.1,0-0.1,0-0.2-0.1c0-0.1,0-0.1,0-0.1c0,0,0,0,0-0.1c0.1,0,0.2,0,0.4,0c0,0,0,0,0,0c0.1,0,0.2,0,0.3,0c0,0,0.1,0,0.1,0
		c0.1,0,0.2,0,0.3,0c0,0,0,0,0,0l0.4,0l0.1,0c0,0.1,0,0.1,0,0.2l-0.3,0.1c-0.1,0-0.1,0-0.1,0c0,0,0,0,0,0c0,0,0,0,0,0.1c0,0,0,0,0,0
		c0,0,0,0,0,0.1l0.1,0.2c0.1,0,0.1,0,0.2,0c0,0,0,0,0.1,0c0.2,0,0.4,0,0.6-0.1c0.1,0,0.2,0,0.3,0c0.1,0,0.2,0,0.3,0c0,0,0-0.1,0-0.1
		c0,0,0,0,0,0c0,0,0,0,0-0.1c0,0,0,0,0,0c0,0-0.1,0-0.2,0c0,0-0.1,0-0.2,0c0-0.1,0-0.1,0-0.1c0,0,0,0,0-0.1c0,0,0.1,0,0.2,0
		c0.1,0,0.2,0,0.3,0c0.1,0,0.1,0,0.2,0l0.1,0c0,0,0,0,0,0c0.1,0,0.2,0,0.3,0l0,0l0,0.2c0,0-0.1,0-0.2,0c0,0,0,0,0,0
		c-0.1,0-0.1,0-0.2,0.1c0,0,0,0,0,0c0,0-0.1,0.1-0.1,0.1c0.1,0,0.2,0,0.3,0c0,0,0.1,0,0.1,0c0.2,0,0.4-0.1,0.6-0.1c0,0,0.1,0,0.1,0
		c0.2,0,0.3-0.1,0.5-0.1c0.1,0,0.2,0,0.3-0.1c0.1,0,0.2,0,0.3,0c0.2,0,0.3-0.1,0.5-0.1c0,0,0.1,0,0.1,0c0,0,0,0,0,0L324.6,50z"/>
	<g>
		<path class="st10" d="M317.6,28.1C317.6,28.1,317.6,28.1,317.6,28.1c0-0.1-0.1-0.2-0.1-0.3c-0.2-0.5-0.6-1-1-1.5
			c0,0-0.1-0.1-0.1-0.1c-0.2-0.2-0.4-0.4-0.7-0.5c-0.4-0.3-0.9-0.4-1.4-0.5c-0.4-0.1-0.8-0.1-1.2-0.1c0,0,0,0-0.1,0c0,0-0.1,0-0.1,0
			c-0.4,0-0.8,0.1-1.1,0.3c-0.1,0-0.1,0-0.2,0.1c-0.3,0.1-0.5,0.3-0.8,0.4c-0.1,0.1-0.2,0.1-0.3,0.2c-0.1,0-0.1,0.1-0.2,0.1
			c-0.2,0.1-0.3,0.2-0.4,0.4c-0.1,0.1-0.1,0.1-0.2,0.2c0,0-0.1,0.1-0.1,0.1c-0.1-0.1-0.2-0.2-0.3-0.3c0,0-0.1-0.1-0.1-0.1
			c-0.3-0.3-0.7-0.5-1.1-0.7c-0.6-0.3-1.2-0.5-1.9-0.5c-0.3,0-0.5,0-0.8,0c-0.5,0.1-0.9,0.2-1.4,0.4c-0.1,0.1-0.3,0.1-0.4,0.2
			c-0.2,0.1-0.4,0.3-0.6,0.5c-0.1,0.1-0.1,0.1-0.2,0.2c-0.2,0.2-0.4,0.4-0.5,0.6c-0.2,0.3-0.4,0.6-0.5,0.9c0,0.1-0.1,0.2-0.1,0.2
			c-0.1,0.3-0.1,0.6-0.2,0.8c-0.1,0.4-0.1,0.8-0.1,1.2c0,0.1,0,0.2,0,0.2c0,0.4,0.1,0.8,0.2,1.2c0,0.2,0.1,0.4,0.1,0.5
			c0,0.1,0.1,0.2,0.1,0.3c0.1,0.3,0.2,0.6,0.4,0.9c0.2,0.3,0.3,0.7,0.5,1c0.2,0.3,0.4,0.6,0.6,0.9c0.1,0.1,0.1,0.2,0.2,0.2
			c0.3,0.4,0.7,0.9,1,1.3c0.2,0.2,0.3,0.4,0.4,0.5c0.1,0.1,0.1,0.1,0.2,0.2c0.2,0.2,0.4,0.4,0.5,0.7c0.5,0.6,0.9,1.1,1.4,1.6
			c0,0,0,0,0,0c0.1,0.1,0.2,0.2,0.2,0.3c0.8,0.8,1.5,1.5,2.1,1.9c0,0,0,0,0,0c0.1,0.1,0.2,0.1,0.2,0.1c0,0,0.1,0,0.1,0
			c0,0,0.1,0,0.1,0c0.1,0,0.1-0.1,0.2-0.1c0,0,0,0,0,0c0,0,0.1-0.1,0.1-0.1c0.1-0.1,0.2-0.1,0.3-0.2c0,0,0.1-0.1,0.2-0.1
			c0.1-0.1,0.2-0.2,0.3-0.2c0.1-0.1,0.1-0.1,0.2-0.1c0.1-0.1,0.2-0.2,0.2-0.2c0.1-0.1,0.1-0.1,0.2-0.2c0.1-0.1,0.2-0.2,0.2-0.2
			c0.1-0.1,0.1-0.1,0.2-0.2c0.1-0.1,0.2-0.2,0.2-0.2c0.1-0.1,0.1-0.1,0.2-0.2c0,0,0.1-0.1,0.1-0.1c0,0,0.1-0.1,0.1-0.1
			c0.1-0.1,0.1-0.1,0.2-0.2c0.1-0.1,0.2-0.2,0.2-0.3c0-0.1,0.1-0.1,0.1-0.2c0.1-0.1,0.2-0.2,0.2-0.3c0.1-0.1,0.2-0.3,0.4-0.4
			c0,0,0.1-0.1,0.1-0.1c0.1-0.1,0.2-0.2,0.3-0.3c0.1-0.2,0.2-0.3,0.4-0.5c0,0,0,0,0,0c0,0,0,0,0-0.1c0.1-0.1,0.2-0.3,0.3-0.4
			c0-0.1,0.1-0.1,0.1-0.2c0.1-0.1,0.1-0.2,0.2-0.2c0,0,0,0,0-0.1c0.1-0.2,0.2-0.3,0.4-0.5c0.1-0.1,0.2-0.2,0.2-0.3
			c0,0,0.1-0.1,0.1-0.1c0.1-0.1,0.2-0.3,0.3-0.4c0,0,0-0.1,0.1-0.1c0.1-0.1,0.1-0.2,0.1-0.2c0.1-0.1,0.1-0.2,0.2-0.3
			c0.1-0.2,0.2-0.4,0.3-0.5c0,0,0-0.1,0.1-0.1c0.2-0.3,0.3-0.7,0.5-1c0,0,0,0,0,0c0.1-0.3,0.2-0.6,0.3-0.8c0-0.1,0-0.1,0-0.2
			c0-0.1,0-0.2,0.1-0.2c0-0.1,0-0.2,0.1-0.3c0-0.2,0.1-0.4,0.1-0.6c0-0.1,0-0.3,0-0.4c0-0.1,0-0.2,0-0.2c0-0.2,0-0.4,0-0.6
			C317.8,29,317.7,28.5,317.6,28.1z"/>
		<path class="st10" d="M301.1,18.7c-0.1-0.1-0.2-0.3-0.3-0.4c-0.1-0.1-0.1-0.1-0.2-0.2c-0.2-0.1-0.4-0.1-0.6-0.1c0,0-0.1,0-0.1,0
			c-0.4,0-0.7,0.3-0.9,0.5c-0.2-0.2-0.5-0.4-0.9-0.4c0,0,0,0,0,0c-0.2,0-0.5,0-0.7,0.2c-0.1,0-0.1,0.1-0.2,0.2
			c-0.1,0.1-0.1,0.1-0.2,0.2c-0.1,0.1-0.1,0.2-0.1,0.3c-0.1,0.2-0.1,0.4-0.1,0.6c0,0.1,0,0.2,0.1,0.3c0,0.1,0,0.1,0,0.2
			c0.1,0.2,0.2,0.5,0.4,0.8c0.1,0.2,0.3,0.4,0.4,0.6c0.2,0.2,0.3,0.4,0.5,0.6c0,0,0,0,0,0c0.3,0.3,0.5,0.5,0.6,0.6c0,0,0,0,0.1,0
			c0,0,0,0,0,0c0,0,0,0,0,0c0,0,0,0,0.1,0c0,0,0,0,0.1,0c0.2-0.1,0.4-0.3,0.6-0.6c0.1-0.1,0.1-0.1,0.2-0.2c0.1-0.1,0.2-0.3,0.4-0.4
			c0.1-0.1,0.2-0.3,0.3-0.4c0-0.1,0.1-0.1,0.1-0.2c0.2-0.3,0.3-0.5,0.4-0.8c0,0,0-0.1,0-0.1c0-0.2,0.1-0.3,0.1-0.5
			c0-0.2,0-0.4-0.1-0.6C301.2,18.8,301.2,18.8,301.1,18.7z"/>
		<path class="st10" d="M297.7,16.7l0.1,0c0.1,0,0.2,0,0.3,0c0.2,0,0.4,0,0.5,0c0,0,0,0,0-0.1c0,0,0-0.1,0-0.1c-0.1,0-0.2,0-0.2,0
			c-0.1,0-0.2,0-0.2-0.1c0,0,0,0,0-0.1c0,0,0-0.1,0-0.2c0.1-0.3,0.2-0.5,0.2-0.6c0,0,0,0,0,0l0.9,0l0.2,0.5l0.1,0.2c0,0,0,0,0,0.1
			c0,0,0,0,0,0c0,0,0,0,0,0c0,0-0.1,0-0.1,0.1l-0.3,0.1c0,0.1,0,0.1,0,0.2l0.1,0l0.4,0c0.1,0,0.2,0,0.3,0c0,0,0,0,0,0
			c0.1,0,0.2,0,0.4,0c0.1,0,0.3,0,0.4,0c0,0,0,0,0-0.1c0,0,0-0.1,0-0.1c-0.1,0-0.1,0-0.2-0.1c-0.1,0-0.1,0-0.1,0c0,0,0-0.1-0.1-0.1
			c-0.1-0.1-0.1-0.2-0.1-0.3c-0.1-0.2-0.1-0.3-0.1-0.3c0-0.1-0.1-0.2-0.1-0.3c0-0.1-0.1-0.1-0.1-0.2c-0.1-0.2-0.2-0.4-0.3-0.6
			l-0.4-0.9l-0.1-0.1l0,0l-0.1,0c0,0,0,0-0.1,0c0,0-0.1,0-0.1,0l-0.4,1l-0.2,0.6l-0.2,0.5l-0.3,0.9c0,0.1-0.1,0.1-0.1,0.1
			c0,0,0,0,0,0c0,0-0.1,0-0.2,0.1c-0.1,0-0.1,0-0.2,0l0,0.2l0,0C297.4,16.8,297.6,16.7,297.7,16.7z M298.7,14.6l0.1-0.2
			c0,0.1,0.1,0.2,0.2,0.4c0,0,0,0.1,0,0.1c0.1,0.2,0.1,0.4,0.2,0.5l-0.1,0c-0.1,0-0.3,0-0.7,0L298.7,14.6z"/>
		<path class="st10" d="M322.6,47.4c0,0,0-0.1,0-0.1c-0.1-0.2-0.2-0.5-0.4-0.7c-0.1-0.1-0.2-0.3-0.3-0.4c-0.1-0.1-0.1-0.1-0.2-0.2
			c-0.2-0.2-0.4-0.5-0.6-0.7c-0.3-0.3-0.5-0.5-0.6-0.6c0,0,0,0-0.1,0c0,0,0,0,0,0c0,0,0,0,0,0c0,0,0,0,0,0c0,0,0,0,0,0
			c-0.1,0.1-0.2,0.1-0.3,0.2c0,0-0.1,0.1-0.1,0.1c-0.1,0.1-0.2,0.2-0.2,0.2c0,0,0,0-0.1,0.1c0,0-0.1,0.1-0.1,0.1
			c-0.1,0.1-0.2,0.2-0.3,0.3c0,0-0.1,0.1-0.1,0.1c0,0,0,0,0,0c-0.1,0.1-0.1,0.2-0.2,0.3c0,0.1-0.1,0.1-0.1,0.2c0,0-0.1,0.1-0.1,0.1
			c0,0.1-0.1,0.1-0.1,0.2c0,0.1-0.1,0.1-0.1,0.2c-0.1,0.1-0.1,0.2-0.1,0.3c0,0.1-0.1,0.1-0.1,0.2c0,0.1,0,0.1,0,0.2
			c0,0.1,0,0.2,0,0.2c0,0,0,0,0,0c0,0.2,0,0.4,0.1,0.6c0,0,0,0.1,0,0.1c0.1,0.1,0.2,0.3,0.3,0.4c0.1,0.1,0.1,0.1,0.2,0.2
			c0.2,0.1,0.4,0.2,0.6,0.1c0,0,0,0,0.1,0c0,0,0,0,0,0c0.2,0,0.4-0.1,0.6-0.2c0,0,0,0,0.1,0c0.1-0.1,0.2-0.2,0.3-0.2
			c0.1,0.1,0.2,0.2,0.3,0.2c0.2,0.1,0.4,0.2,0.6,0.2c0,0,0.1,0,0.1,0c0,0,0.1,0,0.1,0c0.2,0,0.3-0.1,0.5-0.1c0,0,0,0,0.1,0
			c0,0,0,0,0,0c0,0,0.1-0.1,0.1-0.1c0.1-0.1,0.2-0.2,0.2-0.3c0,0,0,0,0,0c0,0,0.1-0.1,0.1-0.1c0-0.1,0.1-0.3,0.1-0.4
			c0-0.1,0-0.1,0-0.2c0,0,0,0,0,0C322.7,47.7,322.6,47.5,322.6,47.4z"/>
		<path class="st10" d="M321.9,50.6C321.9,50.6,321.9,50.6,321.9,50.6l-0.2,0c-0.1,0-0.2,0-0.2,0c-0.1,0-0.2,0-0.3,0
			c-0.1,0-0.1,0-0.2,0c0,0,0,0,0,0.1c0,0,0,0.1,0,0.1c0.1,0,0.2,0,0.2,0c0.1,0,0.1,0,0.2,0c0,0,0,0,0,0c0,0,0,0,0,0.1c0,0,0,0,0,0
			c0,0,0,0,0,0.1c0,0,0,0,0.1,0c0.1,0,0.2,0,0.3,0c0-0.1,0.1-0.1,0.1-0.1c0,0,0,0,0,0c0,0,0.1,0,0.2-0.1c0,0,0,0,0,0
			c0.1,0,0.1,0,0.2,0l0-0.2l0,0C322.1,50.6,322,50.6,321.9,50.6z"/>
		<path class="st10" d="M319.8,50.6C319.8,50.6,319.8,50.6,319.8,50.6c-0.1,0-0.2,0-0.3,0c0,0-0.1,0-0.1,0c-0.1,0-0.2,0-0.3,0
			c0,0,0,0,0,0c-0.1,0-0.2,0-0.4,0c0,0,0,0,0,0.1c0,0,0,0.1,0,0.1c0.1,0,0.1,0,0.2,0.1c0.1,0,0.1,0,0.1,0c0,0,0,0.1,0.1,0.1
			c0,0.1,0.1,0.1,0.1,0.2c0,0,0,0,0,0c0,0,0,0,0,0c0.1,0,0.1,0,0.2,0c0.2,0,0.3,0,0.5,0l-0.1-0.2c0,0,0,0,0-0.1c0,0,0,0,0,0
			c0,0,0,0,0-0.1c0,0,0,0,0,0c0,0,0.1,0,0.1,0l0.3-0.1c0-0.1,0-0.1,0-0.2l-0.1,0L319.8,50.6z"/>
	</g>
</g>
</svg>
